0
SECTION
2
HEADER
9
$INSUNITS
70
4
9
$ACADVER
1
AC1014
9
$HANDSEED
5
FFFF
0
ENDSEC
0
SECTION
2
TABLES
0
TABLE
2
VPORT
5
8
100
AcDbSymbolTable
0
ENDTAB
0
TABLE
2
LTYPE
5
5
100
AcDbSymbolTable
0
LTYPE
5
14
100
AcDbSymbolTableRecord
100
AcDbLinetypeTableRecord
2
BYBLOCK
70
0
0
LTYPE
5
15
100
AcDbSymbolTableRecord
100
AcDbLinetypeTableRecord
2
BYLAYER
70
0
0
ENDTAB
0
TABLE
2
LAYER
5
2
100
AcDbSymbolTable
70
2
0
LAYER
5
50
100
AcDbSymbolTableRecord
100
AcDbLayerTableRecord
2
0
70
0
6
CONTINUOUS
0
ENDTAB
0
TABLE
2
STYLE
5
3
100
AcDbSymbolTable
70
1
0
STYLE
5
11
100
AcDbSymbolTableRecord
100
AcDbTextStyleTableRecord
2
STANDARD
70
0
0
ENDTAB
0
TABLE
2
VIEW
5
6
100
AcDbSymbolTable
70
0
0
ENDTAB
0
TABLE
2
UCS
5
7
100
AcDbSymbolTable
70
0
0
ENDTAB
0
TABLE
2
APPID
5
9
100
AcDbSymbolTable
70
2
0
APPID
5
12
100
AcDbSymbolTableRecord
100
AcDbRegAppTableRecord
2
ACAD
70
0
0
ENDTAB
0
TABLE
2
DIMSTYLE
5
A
100
AcDbSymbolTable
70
1
0
ENDTAB
0
TABLE
2
BLOCK_RECORD
5
1
100
AcDbSymbolTable
70
1
0
BLOCK_RECORD
5
1F
100
AcDbSymbolTableRecord
100
AcDbBlockTableRecord
2
*MODEL_SPACE
0
BLOCK_RECORD
5
1B
100
AcDbSymbolTableRecord
100
AcDbBlockTableRecord
2
*PAPER_SPACE
0
ENDTAB
0
ENDSEC
0
SECTION
2
BLOCKS
0
BLOCK
5
20
100
AcDbEntity
100
AcDbBlockBegin
2
*MODEL_SPACE
0
ENDBLK
5
21
100
AcDbEntity
100
AcDbBlockEnd
0
BLOCK
5
1C
100
AcDbEntity
100
AcDbBlockBegin
2
*PAPER_SPACE
0
ENDBLK
5
1D
100
AcDbEntity
100
AcDbBlockEnd
0
ENDSEC
0
SECTION
2
ENTITIES
0
LWPOLYLINE
5
100
100
AcDbEntity
8
0
100
AcDbPolyline
90
6
70
1
43
0.0
10
6.8744906139761506
20
-65.592012748278506
42
-0.4452675003291689
10
-6.8744906139761497
20
-65.592012748278506
42
-0.3462175673278069
10
-7.038524233254412
20
-63.124181092718636
10
-1.6504099682460782
20
-55.252304191633101
42
-0.52734367807518145
10
1.6504099682460771
20
-55.252304191633101
10
7.0385242332544102
20
-63.124181092718644
42
-0.34621756732780573
0
LWPOLYLINE
5
101
100
AcDbEntity
8
0
100
AcDbPolyline
90
6
70
1
43
0.0
10
4.4086906142759732
20
-48.65946943554944
42
-0.30946297726552197
10
4.4086906142759732
20
-46.400135961523091
10
10.601661540728385
20
-37.352387085514501
42
-0.80078261852194887
10
12.776673698618026
20
-38.220789084622766
10
10.301812929713066
20
-53.604321233624233
42
-0.67749642924384357
10
8.1268007718234276
20
-54.09151931893178
0
LWPOLYLINE
5
102
100
AcDbEntity
8
0
100
AcDbPolyline
90
6
70
1
43
0.0
10
1.6504099682460782
20
-39.807301205439451
10
7.4189271935778924
20
-31.379666737013174
42
0.60318334716829336
10
5.7685172253318173
20
-28.25
10
-5.7685172253318129
20
-28.25
42
0.60318334716829336
10
-7.4189271935778889
20
-31.379666737013174
10
-1.6504099682460729
20
-39.807301205439451
42
0.52734367807518112
0
CIRCLE
5
103
100
AcDbEntity
8
0
100
AcDbCircle
10
15.250000000000002
20
-25.250000000000004
30
0
40
1.5500000000000003
210
0
220
0
230
1
0
CIRCLE
5
104
100
AcDbEntity
8
0
100
AcDbCircle
10
-15.250000000000004
20
-25.25
30
0
40
1.5500000000000003
210
0
220
0
230
1
0
CIRCLE
5
105
100
AcDbEntity
8
0
100
AcDbCircle
10
-15.250000000000004
20
-15.25
30
0
40
2.7499999999999991
210
0
220
0
230
1
0
CIRCLE
5
106
100
AcDbEntity
8
0
100
AcDbCircle
10
15.250000000000002
20
-15.250000000000002
30
0
40
2.7500000000000013
210
0
220
0
230
1
0
LWPOLYLINE
5
107
100
AcDbEntity
8
0
100
AcDbPolyline
90
12
70
1
43
0.0
10
4.2070919455032509
20
-12.010750662659799
42
-0.0074619126236273271
10
7.4304576544556422
20
-12.013373306841245
42
-0.46914951189382442
10
9.7450416917700124
20
-14.888934706627499
10
8.9046936785447457
20
-19.043097640637875
42
-0.35689016542471913
10
4.9841074809953749
20
-22.25
10
-4.9841074809953732
20
-22.25
42
-0.35689016542471919
10
-8.9046936785447457
20
-19.043097640637875
10
-9.7450416917699876
20
-14.888934706627516
42
-0.46914951189381415
10
-7.4304576544555108
20
-12.013373306841292
42
-0.0074619126236273271
10
-4.2070919455030564
20
-12.010750662659966
42
-0.44493279994300744
10
-2.0000000000000009
20
-14.000000000000004
10
1.999999999999758
20
-14.000000000000004
42
-0.44493279994309198
0
CIRCLE
5
108
100
AcDbEntity
8
0
100
AcDbCircle
10
-24.999999999999996
20
5.5511151231257827e-16
30
0
40
5
210
0
220
0
230
1
0
CIRCLE
5
109
100
AcDbEntity
8
0
100
AcDbCircle
10
25
20
0
30
0
40
5
210
0
220
0
230
1
0
LWPOLYLINE
5
110
100
AcDbEntity
8
0
100
AcDbPolyline
90
4
70
1
43
0.0
10
-6.9999999999999947
20
-6.0000000000000009
42
-0.99999999999999989
10
-7
20
5.9999999999999947
10
7.0000000000000018
20
5.999999999999992
42
-0.99999999999999989
10
6.9999999999999929
20
-6.0000000000000009
0
LWPOLYLINE
5
111
100
AcDbEntity
8
0
100
AcDbPolyline
90
20
70
1
43
0.0
10
-15.05640349863787
20
-61.825233202275385
10
-20.238122331508386
20
-29.616092690576981
42
0.1622550394996457
10
-31.946065645914985
20
-7.1938982507844536
42
-0.52550145194367104
10
-29.244548333812872
20
9.0544911199871603
42
0.052495607852681932
10
-25.659399603325106
20
11.219427509985548
42
-0.077948543774599297
10
-22.382565749607647
20
12.978071765481054
42
-0.17591183919322378
10
-18.287666560525537
20
12.931895876361155
42
0.090126974824065398
10
-11.250858238836244
20
11.653095855096611
10
-4.0000000000000027
20
11.653095855096602
42
0.41419952478886418
10
-2.0000000022970519
20
13.652999999999995
10
2.0000000022970492
20
13.652999999999995
42
0.4141995247888664
10
4
20
11.653095855096606
10
11.250858238836255
20
11.653095855096609
42
0.09012697482406444
10
18.287666560525544
20
12.931895876361159
42
-0.17591183919322342
10
22.382565749607657
20
12.978071765481051
42
-0.077948543774599727
10
25.659399603325102
20
11.219427509985545
42
0.052495607852682473
10
29.244548333812872
20
9.0544911199871674
42
-0.52550145194367104
10
31.946065645914995
20
-7.1938982507844518
42
0.16225503949964598
10
20.238122331508372
20
-29.616092690577005
10
15.056403498637874
20
-61.825233202275371
42
-0.85198080663055575
0
LWPOLYLINE
5
112
100
AcDbEntity
8
0
100
AcDbPolyline
90
6
70
1
43
0.0
10
-4.4086906142759723
20
-46.400135961523091
10
-10.60166154072839
20
-37.352387085514486
42
0.80078261852194854
10
-12.776673698618035
20
-38.220789084622751
10
-10.301812929713066
20
-53.604321233624255
42
0.6774964292438459
10
-8.1268007718234276
20
-54.091519318931788
10
-4.408690614275975
20
-48.65946943554944
42
0.30946297726552174
0
LWPOLYLINE
5
113
100
AcDbEntity
8
0
100
AcDbPolyline
90
20
70
1
43
0.0
10
20.238122331508368
20
-29.616092690577013
42
-0.16225503949964598
10
31.946065645914995
20
-7.1938982507844518
42
0.52550145194367148
10
29.244548333812872
20
9.0544911199871585
42
-0.052495607852682515
10
25.659399603325102
20
11.219427509985547
42
0.077948543774599463
10
22.382565749607668
20
12.978071765481049
42
0.17591183919322367
10
18.28766656052554
20
12.931895876361155
42
-0.090126974824064413
10
11.250858238836255
20
11.653095855096609
10
4.0000000000000009
20
11.653095855096602
42
-0.4141995247888664
10
2.0000000022970497
20
13.652999999999995
10
-2.0000000022970514
20
13.652999999999988
42
-0.41419952478886318
10
-4.0000000000000027
20
11.653095855096602
10
-11.250858238836241
20
11.653095855096607
42
-0.090126974824065426
10
-18.287666560525533
20
12.931895876361159
42
0.17591183919322378
10
-22.382565749607647
20
12.978071765481056
42
0.077948543774599727
10
-25.659399603325127
20
11.219427509985536
42
-0.052495607852681841
10
-29.244548333812872
20
9.0544911199871603
42
0.52550145194367148
10
-31.946065645914985
20
-7.1938982507844695
42
-0.16225503949964565
10
-20.238122331508386
20
-29.616092690576981
10
-15.05640349863787
20
-61.825233202275385
42
0.85198080663055575
10
15.056403498637872
20
-61.825233202275385
0
CIRCLE
5
114
100
AcDbEntity
8
0
100
AcDbCircle
10
25
20
0
30
0
40
5
210
0
220
0
230
1
0
LWPOLYLINE
5
115
100
AcDbEntity
8
0
100
AcDbPolyline
90
4
70
1
43
0.0
10
7.0000000000000036
20
5.9999999999999947
10
-7
20
5.9999999999999947
42
0.99999999999999989
10
-6.9999999999999973
20
-6.0000000000000009
10
6.9999999999999929
20
-6.0000000000000009
42
0.99999999999999989
0
CIRCLE
5
116
100
AcDbEntity
8
0
100
AcDbCircle
10
-24.999999999999996
20
5.5511151231257827e-16
30
0
40
5
210
0
220
0
230
1
0
CIRCLE
5
117
100
AcDbEntity
8
0
100
AcDbCircle
10
-15.250000000000004
20
-15.25
30
0
40
2.7499999999999991
210
0
220
0
230
1
0
LWPOLYLINE
5
118
100
AcDbEntity
8
0
100
AcDbPolyline
90
12
70
1
43
0.0
10
-9.7450416917699894
20
-14.888934706627516
42
-0.46914951189378684
10
-7.4304576544554966
20
-12.013373306841398
42
-0.0074619126236273271
10
-4.2070919455030564
20
-12.010750662659966
42
-0.44493279994300744
10
-2.0000000000000009
20
-14.000000000000004
10
1.9999999999997053
20
-14.000000000000004
42
-0.44493279994315177
10
4.2070919455044509
20
-12.010750662659781
42
-0.0074619126236245507
10
7.4304576544556422
20
-12.013373306841245
42
-0.46914951189382442
10
9.7450416917700124
20
-14.888934706627499
10
8.9046936785447457
20
-19.043097640637878
42
-0.35689016542471907
10
4.9841074809953749
20
-22.25
10
-4.9841074809953732
20
-22.25
42
-0.35689016542471919
10
-8.9046936785447457
20
-19.043097640637875
0
CIRCLE
5
119
100
AcDbEntity
8
0
100
AcDbCircle
10
15.250000000000002
20
-15.250000000000002
30
0
40
2.7500000000000013
210
0
220
0
230
1
0
CIRCLE
5
120
100
AcDbEntity
8
0
100
AcDbCircle
10
-15.250000000000004
20
-25.25
30
0
40
1.5500000000000003
210
0
220
0
230
1
0
CIRCLE
5
121
100
AcDbEntity
8
0
100
AcDbCircle
10
15.250000000000002
20
-25.250000000000004
30
0
40
1.5500000000000003
210
0
220
0
230
1
0
LWPOLYLINE
5
122
100
AcDbEntity
8
0
100
AcDbPolyline
90
6
70
1
43
0.0
10
5.7685172253318173
20
-28.25
10
-5.7685172253318129
20
-28.25
42
0.60318334716829336
10
-7.4189271935778889
20
-31.379666737013174
10
-1.6504099682460729
20
-39.807301205439451
42
0.52734367807518112
10
1.6504099682460782
20
-39.807301205439451
10
7.4189271935778924
20
-31.379666737013174
42
0.60318334716829336
0
LWPOLYLINE
5
123
100
AcDbEntity
8
0
100
AcDbPolyline
90
6
70
1
43
0.0
10
-4.408690614275975
20
-46.400135961523091
42
-0.30946297726552197
10
-4.408690614275975
20
-48.65946943554944
10
-8.1268007718234241
20
-54.091519318931788
42
-0.67749642924384668
10
-10.301812929713066
20
-53.604321233624255
10
-12.776673698618037
20
-38.220789084622751
42
-0.80078261852194843
10
-10.60166154072839
20
-37.352387085514486
0
LWPOLYLINE
5
124
100
AcDbEntity
8
0
100
AcDbPolyline
90
6
70
1
43
0.0
10
10.601661540728385
20
-37.352387085514501
42
-0.80078261852194832
10
12.776673698618026
20
-38.220789084622766
10
10.301812929713066
20
-53.604321233624233
42
-0.67749642924384357
10
8.1268007718234276
20
-54.09151931893178
10
4.4086906142759732
20
-48.65946943554944
42
-0.30946297726552197
10
4.4086906142759732
20
-46.400135961523091
0
LWPOLYLINE
5
125
100
AcDbEntity
8
0
100
AcDbPolyline
90
6
70
1
43
0.0
10
7.0385242332544156
20
-63.124181092718644
42
-0.34621756732780479
10
6.8744906139761515
20
-65.592012748278506
42
-0.44526750032916895
10
-6.8744906139761515
20
-65.592012748278506
42
-0.34621756732780629
10
-7.038524233254412
20
-63.124181092718636
10
-1.6504099682460782
20
-55.252304191633101
42
-0.52734367807518145
10
1.6504099682460771
20
-55.252304191633101
0
ENDSEC
0
SECTION
2
OBJECTS
0
DICTIONARY
5
C
100
AcDbDictionary
3
ACAD_GROUP
350
D
3
ACAD_MLINESTYLE
350
17
0
DICTIONARY
5
D
100
AcDbDictionary
0
DICTIONARY
5
1A
330
C
100
AcDbDictionary
0
DICTIONARY
5
17
100
AcDbDictionary
0
ENDSEC
0
EOF
