0
SECTION
2
HEADER
9
$INSUNITS
70
4
9
$ACADVER
1
AC1014
9
$HANDSEED
5
FFFF
0
ENDSEC
0
SECTION
2
TABLES
0
TABLE
2
VPORT
5
8
100
AcDbSymbolTable
0
ENDTAB
0
TABLE
2
LTYPE
5
5
100
AcDbSymbolTable
0
LTYPE
5
14
100
AcDbSymbolTableRecord
100
AcDbLinetypeTableRecord
2
BYBLOCK
70
0
0
LTYPE
5
15
100
AcDbSymbolTableRecord
100
AcDbLinetypeTableRecord
2
BYLAYER
70
0
0
ENDTAB
0
TABLE
2
LAYER
5
2
100
AcDbSymbolTable
70
2
0
LAYER
5
50
100
AcDbSymbolTableRecord
100
AcDbLayerTableRecord
2
0
70
0
6
CONTINUOUS
0
ENDTAB
0
TABLE
2
STYLE
5
3
100
AcDbSymbolTable
70
1
0
STYLE
5
11
100
AcDbSymbolTableRecord
100
AcDbTextStyleTableRecord
2
STANDARD
70
0
0
ENDTAB
0
TABLE
2
VIEW
5
6
100
AcDbSymbolTable
70
0
0
ENDTAB
0
TABLE
2
UCS
5
7
100
AcDbSymbolTable
70
0
0
ENDTAB
0
TABLE
2
APPID
5
9
100
AcDbSymbolTable
70
2
0
APPID
5
12
100
AcDbSymbolTableRecord
100
AcDbRegAppTableRecord
2
ACAD
70
0
0
ENDTAB
0
TABLE
2
DIMSTYLE
5
A
100
AcDbSymbolTable
70
1
0
ENDTAB
0
TABLE
2
BLOCK_RECORD
5
1
100
AcDbSymbolTable
70
1
0
BLOCK_RECORD
5
1F
100
AcDbSymbolTableRecord
100
AcDbBlockTableRecord
2
*MODEL_SPACE
0
BLOCK_RECORD
5
1B
100
AcDbSymbolTableRecord
100
AcDbBlockTableRecord
2
*PAPER_SPACE
0
ENDTAB
0
ENDSEC
0
SECTION
2
BLOCKS
0
BLOCK
5
20
100
AcDbEntity
100
AcDbBlockBegin
2
*MODEL_SPACE
0
ENDBLK
5
21
100
AcDbEntity
100
AcDbBlockEnd
0
BLOCK
5
1C
100
AcDbEntity
100
AcDbBlockBegin
2
*PAPER_SPACE
0
ENDBLK
5
1D
100
AcDbEntity
100
AcDbBlockEnd
0
ENDSEC
0
SECTION
2
ENTITIES
0
LWPOLYLINE
5
100
100
AcDbEntity
8
0
100
AcDbPolyline
90
4
70
1
43
0.0
10
136.60267579714048
20
-54.174725958576801
10
138.0371329310845
20
-53.736168401492854
42
0.99999999999999989
10
137.13078064644401
20
-50.771623658007421
10
135.6963235125005
20
-51.210181215091211
42
0.99999999999999989
0
LWPOLYLINE
5
101
100
AcDbEntity
8
0
100
AcDbPolyline
90
6
70
1
43
0.0
10
138.27916040393586
20
-57.962449325976593
42
-0.53570687071066214
10
141.60118318994893
20
-58.192867549323147
10
143.14709018164618
20
-60.90579810352132
42
-0.55061582376589902
10
141.56020940956574
20
-63.890286768922266
10
138.44662782922001
20
-64.125723302646264
42
-0.53570687071066581
10
136.39795089755765
20
-61.5004898314832
42
-0.084070841075629538
0
LWPOLYLINE
5
102
100
AcDbEntity
8
0
100
AcDbPolyline
90
4
70
1
43
0.0
10
87.09688516699444
20
131.17123575523448
10
85.662428033050318
20
130.73267819815067
42
0.99999999999999989
10
86.568780317690269
20
127.76813345466493
10
88.003237451634462
20
128.20669101174894
42
0.99999999999999989
0
LINE
5
103
100
AcDbEntity
8
0
100
AcDbLine
10
96.495758180142289
20
122.48986569730445
30
0
11
96.057200623058137
21
123.92432283124921
31
0
0
ARC
5
104
100
AcDbEntity
8
0
100
AcDbCircle
10
97.539472994800818
20
124.37749897356946
30
0
40
1.5500000000000014
210
0
220
-0
230
1
100
AcDbArc
50
17.00000000003913
51
197.00000000000037
0
LINE
5
105
100
AcDbEntity
8
0
100
AcDbLine
10
99.021745366543215
20
124.83067511589071
30
0
11
99.460302923627609
21
123.39621798194517
31
0
0
ARC
5
106
100
AcDbEntity
8
0
100
AcDbCircle
10
97.978030551884927
20
122.94304183962493
30
0
40
1.5499999999999936
210
0
220
0
230
1
100
AcDbArc
50
-162.99999999999113
51
17.00000000000038
0
CIRCLE
5
107
100
AcDbEntity
8
0
100
AcDbCircle
10
128.49906160711598
20
-55.031427224615967
30
0
40
4.0000000000000036
210
0
220
-0
230
1
0
CIRCLE
5
108
100
AcDbEntity
8
0
100
AcDbCircle
10
95.200499357018884
20
132.02793702127371
30
0
40
4.0000000000000036
210
0
220
-0
230
1
0
LWPOLYLINE
5
109
100
AcDbEntity
8
0
100
AcDbPolyline
90
6
70
1
43
0.0
10
98.131502908037106
20
141.80805010959062
42
-0.53570543269291793
10
98.361919847623909
20
145.13006802040206
10
101.07488856837668
20
146.67600580993457
42
-0.55061746446892268
10
104.05938198897314
20
145.08912250947182
10
104.29481433260108
20
141.97549206568735
42
-0.5357054326929227
10
101.66958418529393
20
139.92681892448829
42
-0.084071823685815408
0
LINE
5
110
100
AcDbEntity
8
0
100
AcDbLine
10
124.67781559759148
20
-47.834165319232262
30
0
11
124.23925804050737
21
-46.399708185287622
31
0
0
ARC
5
111
100
AcDbEntity
8
0
100
AcDbCircle
10
125.72153041224996
20
-45.946532042967135
30
0
40
1.5499999999999967
210
0
220
-0
230
1
100
AcDbArc
50
17.000000000000075
51
197.00000000000983
0
LINE
5
112
100
AcDbEntity
8
0
100
AcDbLine
10
127.20380278399267
20
-45.49335590064689
30
0
11
127.64236034107688
21
-46.927813034591786
31
0
0
ARC
5
113
100
AcDbEntity
8
0
100
AcDbCircle
10
126.16008796933407
20
-47.380989176911683
30
0
40
1.5499999999999912
210
0
220
0
230
1
100
AcDbArc
50
-162.99999999998693
51
16.999999999986695
0
LINE
5
114
100
AcDbEntity
8
0
100
AcDbLine
10
132.32030761664052
20
-62.228689129999708
30
0
11
132.75886517372459
21
-63.6631462639441
31
0
0
ARC
5
115
100
AcDbEntity
8
0
100
AcDbCircle
10
131.27659280198202
20
-64.1163224062648
30
0
40
1.5499999999999916
210
0
220
0
230
1
100
AcDbArc
50
-162.99999999999994
51
17.000000000017678
0
LINE
5
116
100
AcDbEntity
8
0
100
AcDbLine
10
129.79432043023931
20
-64.569498548585045
30
0
11
129.35576287315513
21
-63.135041414640156
31
0
0
ARC
5
117
100
AcDbEntity
8
0
100
AcDbCircle
10
130.83803524489792
20
-62.681865272320245
30
0
40
1.5499999999999947
210
0
220
-0
230
1
100
AcDbArc
50
17.000000000011585
51
196.99999999998732
0
LWPOLYLINE
5
118
100
AcDbEntity
8
0
100
AcDbPolyline
90
4
70
1
43
0.0
10
120.39544741709121
20
-55.888128490655248
10
118.96099028314693
20
-56.326686047739265
42
0.99999999999999989
10
119.86734256778634
20
-59.291230791225004
10
121.30179970173168
20
-58.85267323414066
42
0.99999999999999989
0
LWPOLYLINE
5
119
100
AcDbEntity
8
0
100
AcDbPolyline
90
4
70
1
43
0.0
10
90.940695790410771
20
140.65965606060038
10
91.379253347494313
20
139.22519892665773
42
0.99999999999999989
10
94.343798090979845
20
140.13155121129765
10
93.905240533895551
20
141.56600834524278
42
0.99999999999999989
0
LWPOLYLINE
5
120
100
AcDbEntity
8
0
100
AcDbPolyline
90
4
70
1
43
0.0
10
103.3041135470441
20
132.88463828731304
10
104.73857068098795
20
133.32319584439705
42
0.99999999999999989
10
103.83221839634787
20
136.28774058788247
10
102.39776126240289
20
135.84918303079826
42
0.99999999999999989
0
CIRCLE
5
121
100
AcDbEntity
8
0
100
AcDbCircle
10
25
20
0
30
0
40
5.0999999999999979
210
0
220
-0
230
1
0
LWPOLYLINE
5
122
100
AcDbEntity
8
0
100
AcDbPolyline
90
39
70
1
43
0.0
10
0
20
-14.000000000000004
10
0
20
-5.9999999999999982
10
6.9999999999999929
20
-6.0000000000000009
42
0.99999999999999989
10
6.9999999999999947
20
6.0000000000000009
10
0
20
5.9999999999999947
10
0
20
13.653095855096604
10
1.9999999999999998
20
13.653095855096604
42
0.41421356237309592
10
4
20
11.653095855096606
10
11.250858238836237
20
11.653095855096609
42
0.27732454405983942
10
28.909810096014823
20
22.263664599378856
10
80.658581658663877
20
119.58894882641572
42
0.18572546785607766
10
81.702408343278776
20
128.14306552297242
42
-0.29636850198076153
10
83.311031749466181
20
132.83326411384522
42
0.21207359653735863
10
87.884347026891788
20
141.43441919047228
42
-0.25058502179643616
10
90.170294069436324
20
145.0660536022377
10
101.84069481110812
20
151.71622740908239
42
-0.55061746446892545
10
107.80968165230107
20
148.54246080815685
10
108.82244297780814
20
135.14853010690203
42
-0.250585021796431
10
107.0899669645716
20
131.22260992870221
42
0.21207359653735791
10
102.51665168714601
20
122.62145485207517
42
-0.29636850198076103
10
99.527831625664703
20
118.66511984036978
42
0.18572546785607735
10
93.019847958688885
20
113.0163469474133
10
40.100592842944479
20
13.489703324817981
42
0.41421356237309542
10
45.062305203820969
20
-2.7393265429198266
10
116.06007341225798
20
-40.489509526260946
42
0.18572546785607727
10
124.61419010881468
20
-41.533336210875845
42
-0.29636850198076214
10
129.30438869968748
20
-43.14195961706325
42
0.21207359653735952
10
137.90554377631457
20
-47.715274894488864
42
-0.25058569082507226
10
141.53718386030451
20
-50.001231891258413
10
148.18730113208201
20
-61.67160173401232
42
-0.55061582376589902
10
145.01353958792112
20
-67.640579064814204
10
131.61966611703861
20
-68.653369981560445
42
-0.25058569082507204
10
127.6937345145445
20
-66.920894832168671
42
0.21207359653735899
10
119.09257943791744
20
-62.347579554743078
42
-0.29636850198076253
10
115.13624442621202
20
-59.358759493261751
42
0.18572546785607727
10
109.48747153325554
20
-52.850775826285897
10
56.433840780641887
20
-24.641659971235832
42
0.12636678601006177
10
4.2070919455030094
20
-12.010750662659964
42
0.44493279994299967
10
1.9999999999999996
20
-14.000000000000004
0
LWPOLYLINE
5
123
100
AcDbEntity
8
0
100
AcDbPolyline
90
39
70
1
43
0.0
10
1.9999999999999996
20
-14.000000000000004
10
0
20
-14.000000000000004
10
0
20
-5.9999999999999982
10
6.9999999999999929
20
-6.0000000000000009
42
0.99999999999999989
10
6.9999999999999947
20
6.0000000000000009
10
0
20
5.9999999999999947
10
0
20
13.653095855096604
10
1.9999999999999998
20
13.653095855096604
42
0.41421356237309592
10
4
20
11.653095855096606
10
11.250858238836237
20
11.653095855096609
42
0.27732454405983942
10
28.909810096014823
20
22.263664599378856
10
80.658581658663877
20
119.58894882641572
42
0.18572546785607766
10
81.702408343278776
20
128.14306552297242
42
-0.29636850198076153
10
83.311031749466181
20
132.83326411384522
42
0.21207359653735863
10
87.884347026891788
20
141.43441919047228
42
-0.25058502179643616
10
90.170294069436324
20
145.0660536022377
10
101.84069481110812
20
151.71622740908239
42
-0.55061746446892545
10
107.80968165230107
20
148.54246080815685
10
108.82244297780814
20
135.14853010690203
42
-0.250585021796431
10
107.0899669645716
20
131.22260992870221
42
0.21207359653735791
10
102.51665168714601
20
122.62145485207517
42
-0.29636850198076103
10
99.527831625664703
20
118.66511984036978
42
0.18572546785607735
10
93.019847958688885
20
113.0163469474133
10
40.100592842944479
20
13.489703324817981
42
0.41421356237309542
10
45.062305203820969
20
-2.7393265429198266
10
116.06007341225798
20
-40.489509526260946
42
0.18572546785607727
10
124.61419010881468
20
-41.533336210875845
42
-0.29636850198076214
10
129.30438869968748
20
-43.14195961706325
42
0.21207359653735952
10
137.90554377631457
20
-47.715274894488864
42
-0.25058569082507226
10
141.53718386030451
20
-50.001231891258413
10
148.18730113208201
20
-61.67160173401232
42
-0.55061582376589924
10
145.01353958792112
20
-67.640579064814204
10
131.61966611703861
20
-68.653369981560445
42
-0.25058569082507204
10
127.6937345145445
20
-66.920894832168671
42
0.21207359653735897
10
119.09257943791744
20
-62.347579554743078
42
-0.29636850198076253
10
115.13624442621202
20
-59.358759493261751
42
0.18572546785607727
10
109.48747153325554
20
-52.850775826285897
10
56.433840780641887
20
-24.641659971235832
42
0.12636678601006177
10
4.2070919455030094
20
-12.010750662659964
42
0.44493279994299967
0
CIRCLE
5
124
100
AcDbEntity
8
0
100
AcDbCircle
10
25
20
0
30
0
40
5.0999999999999979
210
0
220
-0
230
1
0
CIRCLE
5
125
100
AcDbEntity
8
0
100
AcDbCircle
10
128.49906160711598
20
-55.031427224615967
30
0
40
4.0000000000000036
210
0
220
-0
230
1
0
LWPOLYLINE
5
126
100
AcDbEntity
8
0
100
AcDbPolyline
90
6
70
1
43
0.0
10
138.44662782922001
20
-64.125723302646264
10
141.56020940956574
20
-63.890286768922266
42
0.55061582376589902
10
143.14709018164621
20
-60.905798103521313
10
141.60118318994893
20
-58.192867549323147
42
0.53570687071066214
10
138.27916040393586
20
-57.962449325976593
42
0.084070841075629482
10
136.39795089755768
20
-61.500489831483193
42
0.53570687071066581
0
LWPOLYLINE
5
127
100
AcDbEntity
8
0
100
AcDbPolyline
90
4
70
1
43
0.0
10
136.60267579714048
20
-54.174725958576801
10
138.0371329310845
20
-53.736168401492854
42
0.99999999999999989
10
137.13078064644401
20
-50.771623658007421
10
135.6963235125005
20
-51.210181215091211
42
0.99999999999999989
0
LINE
5
128
100
AcDbEntity
8
0
100
AcDbLine
10
127.20380278399267
20
-45.49335590064689
30
0
11
127.64236034107688
21
-46.927813034591786
31
0
0
ARC
5
129
100
AcDbEntity
8
0
100
AcDbCircle
10
126.16008796933407
20
-47.380989176911683
30
0
40
1.5499999999999912
210
0
220
0
230
1
100
AcDbArc
50
-162.99999999998693
51
16.999999999986695
0
LINE
5
130
100
AcDbEntity
8
0
100
AcDbLine
10
124.67781559759148
20
-47.834165319232262
30
0
11
124.23925804050737
21
-46.399708185287622
31
0
0
ARC
5
131
100
AcDbEntity
8
0
100
AcDbCircle
10
125.72153041224996
20
-45.946532042967135
30
0
40
1.5499999999999967
210
0
220
-0
230
1
100
AcDbArc
50
17.000000000000075
51
197.00000000000983
0
LWPOLYLINE
5
132
100
AcDbEntity
8
0
100
AcDbPolyline
90
4
70
1
43
0.0
10
120.39544741709121
20
-55.888128490655248
10
118.96099028314693
20
-56.326686047739265
42
0.99999999999999989
10
119.86734256778634
20
-59.291230791225004
10
121.30179970173168
20
-58.85267323414066
42
0.99999999999999989
0
LINE
5
133
100
AcDbEntity
8
0
100
AcDbLine
10
129.79432043023931
20
-64.569498548585045
30
0
11
129.35576287315513
21
-63.135041414640156
31
0
0
ARC
5
134
100
AcDbEntity
8
0
100
AcDbCircle
10
130.83803524489792
20
-62.681865272320245
30
0
40
1.5499999999999947
210
0
220
-0
230
1
100
AcDbArc
50
17.000000000011585
51
196.99999999998732
0
LINE
5
135
100
AcDbEntity
8
0
100
AcDbLine
10
132.32030761664052
20
-62.228689129999708
30
0
11
132.75886517372459
21
-63.6631462639441
31
0
0
ARC
5
136
100
AcDbEntity
8
0
100
AcDbCircle
10
131.27659280198202
20
-64.1163224062648
30
0
40
1.5499999999999916
210
0
220
0
230
1
100
AcDbArc
50
-162.99999999999994
51
17.000000000017678
0
LWPOLYLINE
5
137
100
AcDbEntity
8
0
100
AcDbPolyline
90
6
70
1
43
0.0
10
104.29481433260105
20
141.97549206568735
10
104.05938198897314
20
145.08912250947182
42
0.55061746446892268
10
101.07488856837668
20
146.67600580993457
10
98.361919847623909
20
145.13006802040206
42
0.53570543269291793
10
98.13150290803712
20
141.80805010959065
42
0.08407182368581545
10
101.66958418529396
20
139.92681892448829
42
0.5357054326929227
0
LWPOLYLINE
5
138
100
AcDbEntity
8
0
100
AcDbPolyline
90
4
70
1
43
0.0
10
94.343798090979845
20
140.13155121129765
10
93.905240533895551
20
141.56600834524278
42
0.99999999999999989
10
90.940695790410771
20
140.65965606060038
10
91.379253347494313
20
139.22519892665773
42
0.99999999999999989
0
LWPOLYLINE
5
139
100
AcDbEntity
8
0
100
AcDbPolyline
90
4
70
1
43
0.0
10
103.83221839634787
20
136.28774058788247
10
102.39776126240289
20
135.84918303079826
42
0.99999999999999989
10
103.3041135470441
20
132.88463828731304
10
104.73857068098795
20
133.32319584439705
42
0.99999999999999989
0
CIRCLE
5
140
100
AcDbEntity
8
0
100
AcDbCircle
10
95.200499357018884
20
132.02793702127371
30
0
40
4.0000000000000036
210
0
220
-0
230
1
0
LWPOLYLINE
5
141
100
AcDbEntity
8
0
100
AcDbPolyline
90
4
70
1
43
0.0
10
87.09688516699444
20
131.17123575523448
10
85.662428033050318
20
130.73267819815067
42
0.99999999999999989
10
86.568780317690269
20
127.76813345466493
10
88.003237451634462
20
128.20669101174894
42
0.99999999999999989
0
LINE
5
142
100
AcDbEntity
8
0
100
AcDbLine
10
96.495758180142289
20
122.48986569730445
30
0
11
96.057200623058137
21
123.92432283124921
31
0
0
ARC
5
143
100
AcDbEntity
8
0
100
AcDbCircle
10
97.539472994800818
20
124.37749897356946
30
0
40
1.5500000000000014
210
0
220
-0
230
1
100
AcDbArc
50
17.00000000003913
51
197.00000000000037
0
LINE
5
144
100
AcDbEntity
8
0
100
AcDbLine
10
99.021745366543215
20
124.83067511589071
30
0
11
99.460302923627609
21
123.39621798194517
31
0
0
ARC
5
145
100
AcDbEntity
8
0
100
AcDbCircle
10
97.978030551884927
20
122.94304183962493
30
0
40
1.5499999999999936
210
0
220
0
230
1
100
AcDbArc
50
-162.99999999999113
51
17.00000000000038
0
ENDSEC
0
SECTION
2
OBJECTS
0
DICTIONARY
5
C
100
AcDbDictionary
3
ACAD_GROUP
350
D
3
ACAD_MLINESTYLE
350
17
0
DICTIONARY
5
D
100
AcDbDictionary
0
DICTIONARY
5
1A
330
C
100
AcDbDictionary
0
DICTIONARY
5
17
100
AcDbDictionary
0
ENDSEC
0
EOF
