0
SECTION
2
HEADER
9
$INSUNITS
70
4
9
$ACADVER
1
AC1014
9
$HANDSEED
5
FFFF
0
ENDSEC
0
SECTION
2
TABLES
0
TABLE
2
VPORT
5
8
100
AcDbSymbolTable
0
ENDTAB
0
TABLE
2
LTYPE
5
5
100
AcDbSymbolTable
0
LTYPE
5
14
100
AcDbSymbolTableRecord
100
AcDbLinetypeTableRecord
2
BYBLOCK
70
0
0
LTYPE
5
15
100
AcDbSymbolTableRecord
100
AcDbLinetypeTableRecord
2
BYLAYER
70
0
0
ENDTAB
0
TABLE
2
LAYER
5
2
100
AcDbSymbolTable
70
2
0
LAYER
5
50
100
AcDbSymbolTableRecord
100
AcDbLayerTableRecord
2
0
70
0
6
CONTINUOUS
0
ENDTAB
0
TABLE
2
STYLE
5
3
100
AcDbSymbolTable
70
1
0
STYLE
5
11
100
AcDbSymbolTableRecord
100
AcDbTextStyleTableRecord
2
STANDARD
70
0
0
ENDTAB
0
TABLE
2
VIEW
5
6
100
AcDbSymbolTable
70
0
0
ENDTAB
0
TABLE
2
UCS
5
7
100
AcDbSymbolTable
70
0
0
ENDTAB
0
TABLE
2
APPID
5
9
100
AcDbSymbolTable
70
2
0
APPID
5
12
100
AcDbSymbolTableRecord
100
AcDbRegAppTableRecord
2
ACAD
70
0
0
ENDTAB
0
TABLE
2
DIMSTYLE
5
A
100
AcDbSymbolTable
70
1
0
ENDTAB
0
TABLE
2
BLOCK_RECORD
5
1
100
AcDbSymbolTable
70
1
0
BLOCK_RECORD
5
1F
100
AcDbSymbolTableRecord
100
AcDbBlockTableRecord
2
*MODEL_SPACE
0
BLOCK_RECORD
5
1B
100
AcDbSymbolTableRecord
100
AcDbBlockTableRecord
2
*PAPER_SPACE
0
ENDTAB
0
ENDSEC
0
SECTION
2
BLOCKS
0
BLOCK
5
20
100
AcDbEntity
100
AcDbBlockBegin
2
*MODEL_SPACE
0
ENDBLK
5
21
100
AcDbEntity
100
AcDbBlockEnd
0
BLOCK
5
1C
100
AcDbEntity
100
AcDbBlockBegin
2
*PAPER_SPACE
0
ENDBLK
5
1D
100
AcDbEntity
100
AcDbBlockEnd
0
ENDSEC
0
SECTION
2
ENTITIES
0
LWPOLYLINE
5
100
100
AcDbEntity
8
0
100
AcDbPolyline
90
39
70
1
43
0.0
10
0
20
-5.9999999999999982
10
0
20
-14.000000000000004
10
-2.0000000000000013
20
-14.000000000000004
42
0.44493279994299595
10
-4.2070919455029889
20
-12.010750662659824
42
0.12636678601006135
10
-56.433840780641859
20
-24.641659971235825
10
-109.48747153325554
20
-52.850775826285911
42
0.18572546785607724
10
-115.13624442621204
20
-59.358759493261751
42
-0.29636850198076153
10
-119.09257943791744
20
-62.347579554743071
42
0.21207359653735883
10
-127.6937345145445
20
-66.920894832168671
42
-0.25058569082507171
10
-131.61966611703861
20
-68.653369981560445
10
-145.01353958792112
20
-67.640579064814219
42
-0.55061582376590124
10
-148.18730113208204
20
-61.671601734012313
10
-141.53718386030451
20
-50.001231891258413
42
-0.25058569082507287
10
-137.90554377631454
20
-47.715274894488864
42
0.21207359653735872
10
-129.30438869968751
20
-43.14195961706325
42
-0.29636850198076037
10
-124.61419010881468
20
-41.533336210875859
42
0.18572546785607796
10
-116.06007341225798
20
-40.489509526260932
10
-45.062305203820969
20
-2.7393265429198332
42
0.41421356237309548
10
-40.100592842944479
20
13.489703324817981
10
-93.019847958688871
20
113.01634694741331
42
0.18572546785607749
10
-99.527831625664703
20
118.66511984036978
42
-0.29636850198076103
10
-102.51665168714601
20
122.62145485207517
42
0.21207359653735791
10
-107.0899669645716
20
131.22260992870221
42
-0.25058502179643538
10
-108.82244297780809
20
135.14853010690203
10
-107.80968165230107
20
148.54246080815685
42
-0.55061746446892268
10
-101.84069481110814
20
151.71622740908236
10
-90.170294069436324
20
145.06605360223773
42
-0.25058502179643549
10
-87.884347026891788
20
141.43441919047225
42
0.21207359653735924
10
-83.311031749466196
20
132.83326411384525
42
-0.29636850198075732
10
-81.70240834327879
20
128.14306552297242
42
0.1857254678560783
10
-80.658581658663877
20
119.5889488264157
10
-28.909810096014819
20
22.263664599378863
42
0.27732454405983931
10
-11.250858238836244
20
11.653095855096611
10
-4.0000000000000027
20
11.653095855096606
42
0.4142135623730952
10
-2.0000000000000009
20
13.653095855096604
10
0
20
13.653095855096604
10
0
20
5.9999999999999947
10
-7
20
5.9999999999999947
42
0.99999999999999989
10
-6.9999999999999947
20
-6.0000000000000036
0
LINE
5
101
100
AcDbEntity
8
0
100
AcDbLine
10
-103.3041135470441
20
132.88463828731304
30
0
11
-104.73857068098795
21
133.32319584439705
31
0
0
ARC
5
102
100
AcDbEntity
8
0
100
AcDbCircle
10
-104.28539453866776
20
134.80546821613967
30
0
40
1.5500000000000314
210
0
220
-0
230
1
100
AcDbArc
50
73.000000000013202
51
253.00000000000102
0
LINE
5
103
100
AcDbEntity
8
0
100
AcDbLine
10
-103.83221839634786
20
136.2877405878825
30
0
11
-102.39776126240289
21
135.84918303079829
31
0
0
ARC
5
104
100
AcDbEntity
8
0
100
AcDbCircle
10
-102.85093740472318
20
134.36691065905555
30
0
40
1.5500000000000047
210
0
220
0
230
1
100
AcDbArc
50
-107.00000000002582
51
72.999999999998721
0
LINE
5
105
100
AcDbEntity
8
0
100
AcDbLine
10
-90.940695790410771
20
140.65965606060038
30
0
11
-91.379253347494313
21
139.22519892665773
31
0
0
ARC
5
106
100
AcDbEntity
8
0
100
AcDbCircle
10
-92.861525719236994
20
139.67837506897803
30
0
40
1.5499999999999874
210
0
220
0
230
1
100
AcDbArc
50
163.00000000002387
51
342.99999999999756
0
LINE
5
107
100
AcDbEntity
8
0
100
AcDbLine
10
-94.343798090979874
20
140.13155121129765
30
0
11
-93.905240533895551
21
141.56600834524278
31
0
0
ARC
5
108
100
AcDbEntity
8
0
100
AcDbCircle
10
-92.422968162152898
20
141.1128322029225
30
0
40
1.5500000000000012
210
-0
220
0
230
1
100
AcDbArc
50
-17.000000000072678
51
162.99999999999832
0
LWPOLYLINE
5
109
100
AcDbEntity
8
0
100
AcDbPolyline
90
4
70
1
43
0.0
10
-118.96099028314693
20
-56.326686047739265
10
-120.39544741709121
20
-55.888128490655248
42
0.99999999999999989
10
-121.30179970173168
20
-58.852673234140681
10
-119.86734256778634
20
-59.291230791225004
42
0.99999999999999989
0
LINE
5
110
100
AcDbEntity
8
0
100
AcDbLine
10
-132.75886517372459
20
-63.6631462639441
30
0
11
-132.32030761664052
21
-62.228689129999708
31
0
0
ARC
5
111
100
AcDbEntity
8
0
100
AcDbCircle
10
-130.83803524489792
20
-62.681865272320245
30
0
40
1.55
210
-0
220
0
230
1
100
AcDbArc
50
-16.999999999987036
51
162.9999999999884
0
LINE
5
112
100
AcDbEntity
8
0
100
AcDbLine
10
-129.3557628731551
20
-63.135041414640156
30
0
11
-129.79432043023931
21
-64.569498548585045
31
0
0
ARC
5
113
100
AcDbEntity
8
0
100
AcDbCircle
10
-131.27659280198202
20
-64.1163224062648
30
0
40
1.5500000000000078
210
0
220
0
230
1
100
AcDbArc
50
162.99999999998232
51
342.99999999999994
0
LINE
5
114
100
AcDbEntity
8
0
100
AcDbLine
10
-124.23925804050737
20
-46.399708185287622
30
0
11
-124.67781559759148
21
-47.834165319232262
31
0
0
ARC
5
115
100
AcDbEntity
8
0
100
AcDbCircle
10
-126.16008796933407
20
-47.380989176911683
30
0
40
1.5499999999999947
210
0
220
0
230
1
100
AcDbArc
50
163.0000000000133
51
342.99999999998693
0
LINE
5
116
100
AcDbEntity
8
0
100
AcDbLine
10
-127.64236034107688
20
-46.927813034591786
30
0
11
-127.20380278399267
21
-45.49335590064689
31
0
0
ARC
5
117
100
AcDbEntity
8
0
100
AcDbCircle
10
-125.72153041224996
20
-45.946532042967178
30
0
40
1.549999999999969
210
-0
220
0
230
1
100
AcDbArc
50
-17.000000000008306
51
162.99999999999844
0
LWPOLYLINE
5
118
100
AcDbEntity
8
0
100
AcDbPolyline
90
6
70
1
43
0.0
10
-98.361919847623909
20
145.13006802040206
42
-0.53570543269292259
10
-98.131502908037106
20
141.80805010959065
42
-0.084071823685814617
10
-101.66958418529396
20
139.92681892448829
42
-0.53570543269292248
10
-104.29481433260106
20
141.97549206568735
10
-104.0593819889731
20
145.08912250947182
42
-0.55061746446892035
10
-101.07488856837668
20
146.67600580993457
0
CIRCLE
5
119
100
AcDbEntity
8
0
100
AcDbCircle
10
-95.200499357018884
20
132.02793702127371
30
0
40
4.0000000000000036
210
0
220
-0
230
1
0
CIRCLE
5
120
100
AcDbEntity
8
0
100
AcDbCircle
10
-128.49906160711598
20
-55.031427224615967
30
0
40
4.0000000000000036
210
0
220
-0
230
1
0
LINE
5
121
100
AcDbEntity
8
0
100
AcDbLine
10
-96.057200623058137
20
123.92432283124921
30
0
11
-96.495758180142289
21
122.48986569730445
31
0
0
ARC
5
122
100
AcDbEntity
8
0
100
AcDbCircle
10
-97.978030551884927
20
122.94304183962493
30
0
40
1.5499999999999992
210
0
220
0
230
1
100
AcDbArc
50
162.99999999999977
51
342.99999999999113
0
LINE
5
123
100
AcDbEntity
8
0
100
AcDbLine
10
-99.460302923627623
20
123.39621798194517
30
0
11
-99.021745366543172
21
124.83067511589071
31
0
0
ARC
5
124
100
AcDbEntity
8
0
100
AcDbCircle
10
-97.539472994800818
20
124.37749897356946
30
0
40
1.5499999999999772
210
-0
220
0
230
1
100
AcDbArc
50
-17.000000000000366
51
162.99999999996044
0
LWPOLYLINE
5
125
100
AcDbEntity
8
0
100
AcDbPolyline
90
4
70
1
43
0.0
10
-85.662428033050318
20
130.73267819815067
10
-87.09688516699444
20
131.17123575523448
42
0.99999999999999989
10
-88.003237451634462
20
128.20669101174894
10
-86.568780317690255
20
127.768133454665
42
0.99999999999999989
0
LWPOLYLINE
5
126
100
AcDbEntity
8
0
100
AcDbPolyline
90
6
70
1
43
0.0
10
-141.60118318994893
20
-58.192867549323154
42
-0.53570687071066336
10
-138.27916040393586
20
-57.962449325976586
42
-0.084070841075629427
10
-136.39795089755768
20
-61.500489831483193
42
-0.53570687071066303
10
-138.44662782922001
20
-64.125723302646264
10
-141.56020940956574
20
-63.890286768922266
42
-0.5506158237659059
10
-143.14709018164618
20
-60.90579810352132
0
LWPOLYLINE
5
127
100
AcDbEntity
8
0
100
AcDbPolyline
90
4
70
1
43
0.0
10
-138.0371329310845
20
-53.736168401492854
10
-136.60267579714048
20
-54.174725958576801
42
0.99999999999999989
10
-135.6963235125005
20
-51.210181215091175
10
-137.13078064644401
20
-50.771623658007442
42
0.99999999999999989
0
CIRCLE
5
128
100
AcDbEntity
8
0
100
AcDbCircle
10
-25
20
0
30
0
40
5.0999999999999979
210
0
220
0
230
1
0
LINE
5
129
100
AcDbEntity
8
0
100
AcDbLine
10
0
20
0
30
0
11
0
21
-92.459579918031494
31
0
0
LINE
5
130
100
AcDbEntity
8
0
100
AcDbLine
10
-128.49906160711598
20
-55.031427224615967
30
0
11
128.49893839288401
21
-55.031427224615967
31
0
0
LWPOLYLINE
5
131
100
AcDbEntity
8
0
100
AcDbPolyline
90
39
70
1
43
0.0
10
-56.433840780641859
20
-24.641659971235825
10
-109.48747153325554
20
-52.850775826285911
42
0.18572546785607724
10
-115.13624442621204
20
-59.358759493261751
42
-0.29636850198076153
10
-119.09257943791744
20
-62.347579554743071
42
0.21207359653735883
10
-127.6937345145445
20
-66.920894832168671
42
-0.25058569082507171
10
-131.61966611703861
20
-68.653369981560445
10
-145.01353958792112
20
-67.640579064814219
42
-0.55061582376590124
10
-148.18730113208204
20
-61.671601734012313
10
-141.53718386030451
20
-50.001231891258413
42
-0.25058569082507287
10
-137.90554377631454
20
-47.715274894488864
42
0.21207359653735844
10
-129.30438869968751
20
-43.141959617063257
42
-0.29636850198076126
10
-124.61419010881468
20
-41.533336210875859
42
0.18572546785607796
10
-116.06007341225798
20
-40.489509526260932
10
-45.062305203820969
20
-2.7393265429198355
42
0.41421356237309548
10
-40.100592842944479
20
13.489703324817981
10
-93.019847958688871
20
113.01634694741331
42
0.18572546785607749
10
-99.527831625664703
20
118.66511984036978
42
-0.29636850198076103
10
-102.51665168714601
20
122.62145485207517
42
0.21207359653735813
10
-107.0899669645716
20
131.22260992870221
42
-0.25058502179643471
10
-108.82244297780809
20
135.14853010690203
10
-107.80968165230107
20
148.54246080815685
42
-0.55061746446892268
10
-101.84069481110814
20
151.71622740908236
10
-90.170294069436324
20
145.06605360223773
42
-0.25058502179643549
10
-87.884347026891788
20
141.43441919047225
42
0.21207359653735894
10
-83.311031749466196
20
132.83326411384525
42
-0.29636850198075815
10
-81.70240834327879
20
128.14306552297242
42
0.18572546785607863
10
-80.658581658663877
20
119.5889488264157
10
-28.909810096014819
20
22.263664599378863
42
0.27732454405983931
10
-11.250858238836244
20
11.653095855096611
10
-4.0000000000000027
20
11.653095855096606
42
0.4142135623730952
10
-2.0000000000000009
20
13.653095855096604
10
0
20
13.653095855096604
10
0
20
5.9999999999999947
10
-7
20
5.9999999999999947
42
0.99999999999999989
10
-6.9999999999999947
20
-6.0000000000000036
10
0
20
-5.9999999999999982
10
0
20
-14.000000000000004
10
-2.0000000000000013
20
-14.000000000000004
42
0.44493279994299595
10
-4.2070919455029889
20
-12.010750662659824
42
0.12636678601006135
0
CIRCLE
5
132
100
AcDbEntity
8
0
100
AcDbCircle
10
-25
20
0
30
0
40
5.0999999999999979
210
0
220
0
230
1
0
LINE
5
133
100
AcDbEntity
8
0
100
AcDbLine
10
-124.23925804050737
20
-46.399708185287622
30
0
11
-124.67781559759148
21
-47.834165319232262
31
0
0
ARC
5
134
100
AcDbEntity
8
0
100
AcDbCircle
10
-126.16008796933407
20
-47.380989176911683
30
0
40
1.5499999999999947
210
0
220
0
230
1
100
AcDbArc
50
163.0000000000133
51
342.99999999998693
0
LINE
5
135
100
AcDbEntity
8
0
100
AcDbLine
10
-127.64236034107688
20
-46.927813034591786
30
0
11
-127.20380278399267
21
-45.49335590064689
31
0
0
ARC
5
136
100
AcDbEntity
8
0
100
AcDbCircle
10
-125.72153041224996
20
-45.946532042967178
30
0
40
1.549999999999969
210
0
220
0
230
1
100
AcDbArc
50
-17.000000000008306
51
162.99999999999844
0
LWPOLYLINE
5
137
100
AcDbEntity
8
0
100
AcDbPolyline
90
4
70
1
43
0.0
10
-121.30179970173168
20
-58.852673234140681
10
-119.86734256778634
20
-59.291230791225004
42
0.99999999999999989
10
-118.96099028314693
20
-56.326686047739265
10
-120.39544741709121
20
-55.888128490655248
42
0.99999999999999989
0
CIRCLE
5
138
100
AcDbEntity
8
0
100
AcDbCircle
10
-128.49906160711598
20
-55.031427224615967
30
0
40
4.0000000000000036
210
0
220
-0
230
1
0
ARC
5
139
100
AcDbEntity
8
0
100
AcDbCircle
10
-131.27659280198202
20
-64.1163224062648
30
0
40
1.5500000000000078
210
0
220
0
230
1
100
AcDbArc
50
162.99999999998232
51
342.99999999998283
0
LINE
5
140
100
AcDbEntity
8
0
100
AcDbLine
10
-129.3557628731551
20
-63.135041414640156
30
0
11
-129.79432043023945
21
-64.569498548585486
31
0
0
ARC
5
141
100
AcDbEntity
8
0
100
AcDbCircle
10
-130.83803524489792
20
-62.681865272320245
30
0
40
1.55
210
0
220
0
230
1
100
AcDbArc
50
-16.999999999987036
51
163.0000000000127
0
LINE
5
142
100
AcDbEntity
8
0
100
AcDbLine
10
-132.75886517372459
20
-63.6631462639441
30
0
11
-132.32030761664072
21
-62.228689130000333
31
0
0
LWPOLYLINE
5
143
100
AcDbEntity
8
0
100
AcDbPolyline
90
4
70
1
43
0.0
10
-135.6963235125005
20
-51.210181215091175
10
-137.13078064644401
20
-50.771623658007442
42
0.99999999999999989
10
-138.0371329310845
20
-53.736168401492854
10
-136.60267579714048
20
-54.174725958576801
42
0.99999999999999989
0
LWPOLYLINE
5
144
100
AcDbEntity
8
0
100
AcDbPolyline
90
6
70
1
43
0.0
10
-141.60118318994893
20
-58.192867549323154
10
-143.14709018164618
20
-60.90579810352132
42
0.5506158237659059
10
-141.56020940956574
20
-63.890286768922266
10
-138.44662782922001
20
-64.125723302646264
42
0.53570687071066303
10
-136.39795089755768
20
-61.5004898314832
42
0.084070841075629399
10
-138.27916040393586
20
-57.962449325976593
42
0.53570687071066336
0
LWPOLYLINE
5
145
100
AcDbEntity
8
0
100
AcDbPolyline
90
6
70
1
43
0.0
10
-98.361919847623909
20
145.13006802040206
10
-101.07488856837668
20
146.67600580993457
42
0.55061746446892035
10
-104.05938198897314
20
145.08912250947182
10
-104.29481433260106
20
141.97549206568735
42
0.53570543269292248
10
-101.66958418529396
20
139.92681892448829
42
0.084071823685814673
10
-98.13150290803712
20
141.80805010959065
42
0.53570543269292259
0
LINE
5
146
100
AcDbEntity
8
0
100
AcDbLine
10
-90.940695790410771
20
140.65965606060038
30
0
11
-91.379253347494313
21
139.22519892665773
31
0
0
ARC
5
147
100
AcDbEntity
8
0
100
AcDbCircle
10
-92.861525719236994
20
139.67837506897803
30
0
40
1.5499999999999874
210
0
220
0
230
1
100
AcDbArc
50
163.00000000002387
51
342.99999999999756
0
LINE
5
148
100
AcDbEntity
8
0
100
AcDbLine
10
-94.343798090979874
20
140.13155121129765
30
0
11
-93.905240533895551
21
141.56600834524278
31
0
0
ARC
5
149
100
AcDbEntity
8
0
100
AcDbCircle
10
-92.422968162152898
20
141.1128322029225
30
0
40
1.5500000000000012
210
0
220
0
230
1
100
AcDbArc
50
-17.000000000072678
51
162.99999999999832
0
LINE
5
150
100
AcDbEntity
8
0
100
AcDbLine
10
-103.83221839634786
20
136.2877405878825
30
0
11
-102.39776126240289
21
135.84918303079829
31
0
0
ARC
5
151
100
AcDbEntity
8
0
100
AcDbCircle
10
-102.85093740472318
20
134.36691065905555
30
0
40
1.5500000000000047
210
0
220
0
230
1
100
AcDbArc
50
-107.00000000002582
51
72.999999999998721
0
LINE
5
152
100
AcDbEntity
8
0
100
AcDbLine
10
-103.3041135470441
20
132.88463828731304
30
0
11
-104.73857068098795
21
133.32319584439705
31
0
0
ARC
5
153
100
AcDbEntity
8
0
100
AcDbCircle
10
-104.28539453866776
20
134.80546821613967
30
0
40
1.5500000000000314
210
0
220
-0
230
1
100
AcDbArc
50
73.000000000013202
51
253.00000000000102
0
CIRCLE
5
154
100
AcDbEntity
8
0
100
AcDbCircle
10
-95.200499357018884
20
132.02793702127371
30
0
40
4.0000000000000036
210
0
220
-0
230
1
0
LWPOLYLINE
5
155
100
AcDbEntity
8
0
100
AcDbPolyline
90
4
70
1
43
0.0
10
-88.003237451634462
20
128.20669101174894
10
-86.568780317690255
20
127.768133454665
42
0.99999999999999989
10
-85.662428033050318
20
130.73267819815067
10
-87.09688516699444
20
131.17123575523448
42
0.99999999999999989
0
LINE
5
156
100
AcDbEntity
8
0
100
AcDbLine
10
-99.460302923627623
20
123.39621798194517
30
0
11
-99.021745366543172
21
124.83067511589071
31
0
0
ARC
5
157
100
AcDbEntity
8
0
100
AcDbCircle
10
-97.539472994800818
20
124.37749897356946
30
0
40
1.5499999999999772
210
0
220
0
230
1
100
AcDbArc
50
-17.000000000000366
51
162.99999999996044
0
LINE
5
158
100
AcDbEntity
8
0
100
AcDbLine
10
-96.057200623058137
20
123.92432283124921
30
0
11
-96.495758180142289
21
122.48986569730445
31
0
0
ARC
5
159
100
AcDbEntity
8
0
100
AcDbCircle
10
-97.978030551884927
20
122.94304183962493
30
0
40
1.5499999999999992
210
0
220
0
230
1
100
AcDbArc
50
162.99999999999977
51
342.99999999999113
0
ENDSEC
0
SECTION
2
OBJECTS
0
DICTIONARY
5
C
100
AcDbDictionary
3
ACAD_GROUP
350
D
3
ACAD_MLINESTYLE
350
17
0
DICTIONARY
5
D
100
AcDbDictionary
0
DICTIONARY
5
1A
330
C
100
AcDbDictionary
0
DICTIONARY
5
17
100
AcDbDictionary
0
ENDSEC
0
EOF
