0
SECTION
2
HEADER
9
$INSUNITS
70
4
9
$ACADVER
1
AC1014
9
$HANDSEED
5
FFFF
0
ENDSEC
0
SECTION
2
TABLES
0
TABLE
2
VPORT
5
8
100
AcDbSymbolTable
0
ENDTAB
0
TABLE
2
LTYPE
5
5
100
AcDbSymbolTable
0
LTYPE
5
14
100
AcDbSymbolTableRecord
100
AcDbLinetypeTableRecord
2
BYBLOCK
70
0
0
LTYPE
5
15
100
AcDbSymbolTableRecord
100
AcDbLinetypeTableRecord
2
BYLAYER
70
0
0
ENDTAB
0
TABLE
2
LAYER
5
2
100
AcDbSymbolTable
70
2
0
LAYER
5
50
100
AcDbSymbolTableRecord
100
AcDbLayerTableRecord
2
0
70
0
6
CONTINUOUS
0
ENDTAB
0
TABLE
2
STYLE
5
3
100
AcDbSymbolTable
70
1
0
STYLE
5
11
100
AcDbSymbolTableRecord
100
AcDbTextStyleTableRecord
2
STANDARD
70
0
0
ENDTAB
0
TABLE
2
VIEW
5
6
100
AcDbSymbolTable
70
0
0
ENDTAB
0
TABLE
2
UCS
5
7
100
AcDbSymbolTable
70
0
0
ENDTAB
0
TABLE
2
APPID
5
9
100
AcDbSymbolTable
70
2
0
APPID
5
12
100
AcDbSymbolTableRecord
100
AcDbRegAppTableRecord
2
ACAD
70
0
0
ENDTAB
0
TABLE
2
DIMSTYLE
5
A
100
AcDbSymbolTable
70
1
0
ENDTAB
0
TABLE
2
BLOCK_RECORD
5
1
100
AcDbSymbolTable
70
1
0
BLOCK_RECORD
5
1F
100
AcDbSymbolTableRecord
100
AcDbBlockTableRecord
2
*MODEL_SPACE
0
BLOCK_RECORD
5
1B
100
AcDbSymbolTableRecord
100
AcDbBlockTableRecord
2
*PAPER_SPACE
0
ENDTAB
0
ENDSEC
0
SECTION
2
BLOCKS
0
BLOCK
5
20
100
AcDbEntity
100
AcDbBlockBegin
2
*MODEL_SPACE
0
ENDBLK
5
21
100
AcDbEntity
100
AcDbBlockEnd
0
BLOCK
5
1C
100
AcDbEntity
100
AcDbBlockBegin
2
*PAPER_SPACE
0
ENDBLK
5
1D
100
AcDbEntity
100
AcDbBlockEnd
0
ENDSEC
0
SECTION
2
ENTITIES
0
LWPOLYLINE
5
100
100
AcDbEntity
8
0
100
AcDbPolyline
90
48
70
1
43
0.0
10
-3.9605619799967782
20
77.071535931027867
42
-0.20884350356049969
10
-8.7932808819084602
20
81.27297488412195
42
0.7101779722446987
10
-15.458045060863903
20
80.552760460557693
10
-17.800704013574176
20
70.461306510421167
42
-0.12273409607929095
10
-18.680909041659827
20
68.738538630812215
42
0.32580984667071072
10
-19.144925582335482
20
63.397967961938313
42
-0.13665649409310826
10
-18.569035984388648
20
61.330247488917053
10
-18.569035984388645
20
39.669752511082976
42
-0.13665649409311018
10
-19.144925582335478
20
37.602032038061708
42
0.27851424090480092
10
-19.144925582335478
20
32.897967961938306
42
-0.1366564940931069
10
-18.569035984388645
20
30.830247488917031
10
-18.569035984388648
20
29.669752511082965
42
-0.13665649409310826
10
-19.144925582335478
20
27.602032038061701
42
0.27851424090479987
10
-19.144925582335478
20
22.897967961938313
42
-0.13665649409310668
10
-18.569035984388645
20
20.830247488917042
10
-18.569035984388648
20
19.944370463553337
42
-0.19057473958681967
10
-19.651202151959065
20
17.208270003714681
10
-23.144475839290738
20
13.482971060768181
42
-0.095077500733833642
10
-29.244548333812872
20
9.0544911199871549
42
0.63407624100605431
10
-29.285028796574242
20
-9.0354041532479048
42
-0.092143091187395068
10
-23.364245471994806
20
-13.321600405097323
10
-18.546666308783099
20
-18.385999242432057
42
0.56386653875949522
10
-10.941773770833152
20
-16.713450292397663
42
-0.32124788696811379
10
-7.1543221407963653
20
-14.000000000000004
10
7.1543221407963635
20
-14.000000000000004
42
-0.32124788696811385
10
10.941773770833152
20
-16.713450292397663
42
0.56386653875949566
10
18.546666308783099
20
-18.385999242432057
10
23.364245471994806
20
-13.321600405097325
42
-0.092143091187394846
10
29.285028796574238
20
-9.0354041532479137
42
0.63407624100605431
10
29.244548333812872
20
9.0544911199871585
42
-0.095077500733833864
10
23.144475839290731
20
13.482971060768188
10
19.651202151959069
20
17.208270003714681
42
-0.19057473958681992
10
18.569035984388648
20
19.944370463553337
10
18.569035984388645
20
20.830247488917042
42
-0.13665649409310882
10
19.144925582335478
20
22.897967961938313
42
0.27851424090479981
10
19.144925582335482
20
27.602032038061694
42
-0.13665649409310904
10
18.569035984388648
20
29.669752511082965
10
18.569035984388645
20
30.830247488917031
42
-0.13665649409310882
10
19.144925582335478
20
32.897967961938306
42
0.27851424090480065
10
19.144925582335482
20
37.602032038061701
42
-0.13665649409310904
10
18.569035984388648
20
39.669752511082976
10
18.569035984388652
20
61.330247488917053
42
-0.13665649409310859
10
19.144925582335482
20
63.397967961938313
42
0.325809846670711
10
18.680909041659827
20
68.738538630812215
42
-0.12273409607929051
10
17.800704013574176
20
70.461306510421153
10
15.458045060863901
20
80.552760460557693
42
0.71017797224469714
10
8.7932808819084691
20
81.272974884121965
42
-0.2088435035604945
10
3.9605619799969585
20
77.07153593102791
42
-0.16978027202970336
0
LWPOLYLINE
5
101
100
AcDbEntity
8
0
100
AcDbPolyline
90
4
70
1
43
0.0
10
7.0000000000000009
20
5.9999999999999964
10
-7.0000000000000009
20
5.9999999999999964
42
0.99999999999999989
10
-6.9999999999999964
20
-5.9999999999999964
10
6.9999999999999938
20
-6.0000000000000009
42
0.99999999999999989
0
LWPOLYLINE
5
102
100
AcDbEntity
8
0
100
AcDbPolyline
90
8
70
1
43
0.0
10
3.0000000000000004
20
48.500000000000007
10
-3.0000000000000004
20
48.500000000000007
42
0.41421356237309437
10
-5
20
46.5
10
-5
20
34.500000000000007
42
0.41421356237309603
10
-3.0000000000000009
20
32.500000000000007
10
3
20
32.500000000000007
42
0.41421356237309509
10
5
20
34.500000000000007
10
5
20
46.5
42
0.41421356237309503
0
LWPOLYLINE
5
103
100
AcDbEntity
8
0
100
AcDbPolyline
90
8
70
1
43
0.0
10
-3.0000000000000004
20
52.500000000000014
10
3.0000000000000004
20
52.500000000000014
42
0.41421356237309503
10
5
20
54.500000000000014
10
5
20
66.5
42
0.41421356237309503
10
3.0000000000000009
20
68.5
10
-3
20
68.5
42
0.41421356237309442
10
-5
20
66.5
10
-5
20
54.500000000000014
42
0.41421356237309437
0
LWPOLYLINE
5
104
100
AcDbEntity
8
0
100
AcDbPolyline
90
4
70
1
43
0.0
10
-8.4499999999999993
20
35.500000000000014
10
-8.4499999999999993
20
45.500000000000007
42
0.99999999999999989
10
-11.550000000000001
20
45.500000000000007
10
-11.550000000000001
20
35.500000000000021
42
0.99999999999999989
0
LWPOLYLINE
5
105
100
AcDbEntity
8
0
100
AcDbPolyline
90
4
70
1
43
0.0
10
-8.4499999999999993
20
55.500000000000007
10
-8.4499999999999993
20
65.500000000000014
42
0.99999999999999989
10
-11.550000000000001
20
65.500000000000028
10
-11.550000000000001
20
55.500000000000007
42
0.99999999999999989
0
CIRCLE
5
106
100
AcDbEntity
8
0
100
AcDbCircle
10
-15.250000000000004
20
-15.25
30
0
40
1.5500000000000003
210
0
220
0
230
1
0
CIRCLE
5
107
100
AcDbEntity
8
0
100
AcDbCircle
10
-24.999999999999996
20
5.5511151231257827e-16
30
0
40
3.9999999999999991
210
0
220
0
230
1
0
CIRCLE
5
108
100
AcDbEntity
8
0
100
AcDbCircle
10
-15.25
20
65.750000000000014
30
0
40
1.5500000000000003
210
0
220
0
230
1
0
CIRCLE
5
109
100
AcDbEntity
8
0
100
AcDbCircle
10
-15.25
20
35.25
30
0
40
1.5500000000000025
210
0
220
0
230
1
0
CIRCLE
5
110
100
AcDbEntity
8
0
100
AcDbCircle
10
-15.250000000000002
20
15.250000000000002
30
0
40
1.5500000000000003
210
0
220
0
230
1
0
CIRCLE
5
111
100
AcDbEntity
8
0
100
AcDbCircle
10
-15.249999999999996
20
25.250000000000004
30
0
40
1.549999999999998
210
0
220
0
230
1
0
CIRCLE
5
112
100
AcDbEntity
8
0
100
AcDbCircle
10
-11.999999999999996
20
79.750000000000014
30
0
40
1.5500000000000003
210
0
220
-0
230
1
0
CIRCLE
5
113
100
AcDbEntity
8
0
100
AcDbCircle
10
12.000000000000002
20
79.750000000000014
30
0
40
1.5500000000000003
210
0
220
-0
230
1
0
LWPOLYLINE
5
114
100
AcDbEntity
8
0
100
AcDbPolyline
90
8
70
1
43
0.0
10
5
20
15.653000000000015
10
5
20
26.500000000000004
42
0.41421356237309515
10
2.9999999999999991
20
28.500000000000014
10
-2.9999999999999991
20
28.500000000000007
42
0.41421356237309515
10
-5
20
26.500000000000004
10
-5.0000000000000009
20
15.653000000000015
42
0.41421356237309509
10
-3.0000000000000009
20
13.653000000000013
10
3
20
13.653000000000015
42
0.41421356237309509
0
CIRCLE
5
115
100
AcDbEntity
8
0
100
AcDbCircle
10
15.250000000000002
20
25.250000000000004
30
0
40
1.549999999999998
210
0
220
0
230
1
0
CIRCLE
5
116
100
AcDbEntity
8
0
100
AcDbCircle
10
15.250000000000002
20
15.250000000000002
30
0
40
1.5500000000000003
210
0
220
0
230
1
0
CIRCLE
5
117
100
AcDbEntity
8
0
100
AcDbCircle
10
15.250000000000002
20
35.25
30
0
40
1.5500000000000025
210
0
220
0
230
1
0
CIRCLE
5
118
100
AcDbEntity
8
0
100
AcDbCircle
10
15.250000000000002
20
65.750000000000014
30
0
40
1.5500000000000003
210
0
220
0
230
1
0
CIRCLE
5
119
100
AcDbEntity
8
0
100
AcDbCircle
10
25
20
0
30
0
40
3.9999999999999991
210
0
220
0
230
1
0
CIRCLE
5
120
100
AcDbEntity
8
0
100
AcDbCircle
10
15.250000000000002
20
-15.250000000000002
30
0
40
1.5500000000000003
210
0
220
0
230
1
0
LWPOLYLINE
5
121
100
AcDbEntity
8
0
100
AcDbPolyline
90
4
70
1
43
0.0
10
8.4499999999999993
20
65.500000000000014
10
8.4499999999999993
20
55.500000000000007
42
0.99999999999999989
10
11.550000000000001
20
55.500000000000007
10
11.550000000000001
20
65.500000000000028
42
0.99999999999999989
0
LWPOLYLINE
5
122
100
AcDbEntity
8
0
100
AcDbPolyline
90
4
70
1
43
0.0
10
8.4499999999999993
20
45.500000000000007
10
8.4499999999999993
20
35.500000000000014
42
0.99999999999999989
10
11.550000000000001
20
35.500000000000021
10
11.550000000000001
20
45.500000000000007
42
0.99999999999999989
0
LWPOLYLINE
5
123
100
AcDbEntity
8
0
100
AcDbPolyline
90
48
70
1
43
0.0
10
19.651202151959069
20
17.208270003714681
42
-0.19057473958681992
10
18.569035984388648
20
19.944370463553337
10
18.569035984388645
20
20.830247488917042
42
-0.13665649409310882
10
19.144925582335478
20
22.897967961938313
42
0.27851424090479981
10
19.144925582335482
20
27.602032038061694
42
-0.13665649409310904
10
18.569035984388648
20
29.669752511082965
10
18.569035984388645
20
30.830247488917031
42
-0.13665649409310882
10
19.144925582335478
20
32.897967961938306
42
0.27851424090480054
10
19.144925582335482
20
37.602032038061701
42
-0.13665649409310926
10
18.569035984388648
20
39.669752511082976
10
18.569035984388652
20
61.330247488917053
42
-0.13665649409310859
10
19.144925582335482
20
63.397967961938313
42
0.32580984667071122
10
18.680909041659824
20
68.738538630812215
42
-0.12273409607929027
10
17.800704013574176
20
70.461306510421153
10
15.458045060863901
20
80.552760460557693
42
0.71017797224469892
10
8.7932808819084691
20
81.27297488412195
42
-0.20884350356049414
10
3.9605619799969469
20
77.07153593102791
42
-0.16978027202970325
10
-3.9605619799967799
20
77.071535931027867
42
-0.20884350356049958
10
-8.7932808819084602
20
81.27297488412195
42
0.7101779722446987
10
-15.458045060863903
20
80.552760460557693
10
-17.800704013574176
20
70.461306510421167
42
-0.12273409607929141
10
-18.680909041659827
20
68.738538630812215
42
0.32580984667071083
10
-19.144925582335482
20
63.397967961938313
42
-0.13665649409310815
10
-18.569035984388648
20
61.330247488917053
10
-18.569035984388648
20
39.669752511082976
42
-0.13665649409311029
10
-19.144925582335478
20
37.602032038061708
42
0.27851424090480098
10
-19.144925582335478
20
32.897967961938306
42
-0.13665649409310668
10
-18.569035984388645
20
30.830247488917031
10
-18.569035984388648
20
29.669752511082965
42
-0.13665649409310826
10
-19.144925582335478
20
27.602032038061701
42
0.27851424090480026
10
-19.144925582335475
20
22.897967961938306
42
-0.13665649409310632
10
-18.569035984388645
20
20.830247488917042
10
-18.569035984388648
20
19.944370463553337
42
-0.19057473958681967
10
-19.651202151959065
20
17.208270003714681
10
-23.144475839290738
20
13.482971060768181
42
-0.095077500733833642
10
-29.244548333812872
20
9.0544911199871549
42
0.63407624100605475
10
-29.28502879657422
20
-9.0354041532479119
42
-0.092143091187394846
10
-23.364245471994806
20
-13.321600405097323
10
-18.546666308783099
20
-18.385999242432057
42
0.56386653875949544
10
-10.941773770833152
20
-16.713450292397663
42
-0.32124788696811374
10
-7.1543221407963653
20
-14.000000000000004
10
7.1543221407963635
20
-14.000000000000004
42
-0.32124788696811385
10
10.941773770833152
20
-16.713450292397663
42
0.56386653875949566
10
18.546666308783099
20
-18.385999242432057
10
23.364245471994813
20
-13.321600405097325
42
-0.092143091187394735
10
29.285028796574238
20
-9.0354041532479137
42
0.63407624100605453
10
29.244548333812872
20
9.0544911199871585
42
-0.095077500733833864
10
23.144475839290731
20
13.482971060768188
0
CIRCLE
5
124
100
AcDbEntity
8
0
100
AcDbCircle
10
15.250000000000002
20
-15.250000000000002
30
0
40
1.5500000000000003
210
0
220
0
230
1
0
CIRCLE
5
125
100
AcDbEntity
8
0
100
AcDbCircle
10
-15.250000000000004
20
-15.25
30
0
40
1.5500000000000003
210
0
220
0
230
1
0
CIRCLE
5
126
100
AcDbEntity
8
0
100
AcDbCircle
10
25
20
0
30
0
40
3.9999999999999991
210
0
220
0
230
1
0
LWPOLYLINE
5
127
100
AcDbEntity
8
0
100
AcDbPolyline
90
4
70
1
43
0.0
10
7.0000000000000009
20
5.9999999999999964
10
-7.0000000000000009
20
5.9999999999999964
42
0.99999999999999989
10
-6.9999999999999964
20
-5.9999999999999964
10
6.9999999999999938
20
-6.0000000000000009
42
0.99999999999999989
0
CIRCLE
5
128
100
AcDbEntity
8
0
100
AcDbCircle
10
-24.999999999999996
20
5.5511151231257827e-16
30
0
40
3.9999999999999991
210
0
220
0
230
1
0
CIRCLE
5
129
100
AcDbEntity
8
0
100
AcDbCircle
10
15.250000000000002
20
15.250000000000002
30
0
40
1.5500000000000003
210
0
220
0
230
1
0
LWPOLYLINE
5
130
100
AcDbEntity
8
0
100
AcDbPolyline
90
8
70
1
43
0.0
10
-3.0000000000000009
20
13.653000000000013
10
3
20
13.653000000000015
42
0.41421356237309509
10
5
20
15.653000000000015
10
5
20
26.500000000000004
42
0.41421356237309515
10
2.9999999999999991
20
28.500000000000014
10
-2.9999999999999991
20
28.500000000000007
42
0.41421356237309515
10
-5
20
26.500000000000004
10
-5.0000000000000009
20
15.653000000000015
42
0.41421356237309503
0
CIRCLE
5
131
100
AcDbEntity
8
0
100
AcDbCircle
10
-15.250000000000002
20
15.250000000000002
30
0
40
1.5500000000000003
210
0
220
0
230
1
0
CIRCLE
5
132
100
AcDbEntity
8
0
100
AcDbCircle
10
15.250000000000002
20
25.250000000000004
30
0
40
1.549999999999998
210
0
220
0
230
1
0
CIRCLE
5
133
100
AcDbEntity
8
0
100
AcDbCircle
10
-15.249999999999996
20
25.250000000000004
30
0
40
1.549999999999998
210
0
220
0
230
1
0
CIRCLE
5
134
100
AcDbEntity
8
0
100
AcDbCircle
10
15.250000000000002
20
35.25
30
0
40
1.5500000000000025
210
0
220
0
230
1
0
LWPOLYLINE
5
135
100
AcDbEntity
8
0
100
AcDbPolyline
90
4
70
1
43
0.0
10
11.550000000000001
20
35.500000000000021
10
11.550000000000001
20
45.500000000000007
42
0.99999999999999989
10
8.4499999999999993
20
45.500000000000007
10
8.4499999999999993
20
35.500000000000014
42
0.99999999999999989
0
LWPOLYLINE
5
136
100
AcDbEntity
8
0
100
AcDbPolyline
90
8
70
1
43
0.0
10
5.0000000000000018
20
34.500000000000007
42
-0.41421356237309509
10
3
20
32.500000000000007
10
-3.0000000000000004
20
32.500000000000007
42
-0.41421356237309603
10
-5
20
34.500000000000007
10
-4.9999999999999982
20
46.5
42
-0.41421356237309437
10
-3.0000000000000004
20
48.500000000000007
10
3.0000000000000004
20
48.500000000000007
42
-0.41421356237309503
10
5
20
46.5
0
LWPOLYLINE
5
137
100
AcDbEntity
8
0
100
AcDbPolyline
90
4
70
1
43
0.0
10
-8.4499999999999993
20
35.499999999999993
42
-0.99999999999999989
10
-11.550000000000001
20
35.500000000000021
10
-11.550000000000001
20
45.500000000000007
42
-0.99999999999999989
10
-8.4499999999999993
20
45.500000000000007
0
CIRCLE
5
138
100
AcDbEntity
8
0
100
AcDbCircle
10
-15.25
20
35.25
30
0
40
1.5500000000000025
210
0
220
0
230
1
0
CIRCLE
5
139
100
AcDbEntity
8
0
100
AcDbCircle
10
15.250000000000002
20
65.750000000000014
30
0
40
1.5500000000000003
210
0
220
0
230
1
0
LWPOLYLINE
5
140
100
AcDbEntity
8
0
100
AcDbPolyline
90
4
70
1
43
0.0
10
8.4499999999999993
20
65.500000000000014
10
8.4499999999999993
20
55.500000000000007
42
0.99999999999999989
10
11.550000000000001
20
55.500000000000007
10
11.550000000000001
20
65.500000000000028
42
0.99999999999999989
0
LWPOLYLINE
5
141
100
AcDbEntity
8
0
100
AcDbPolyline
90
8
70
1
43
0.0
10
4.9999999999999929
20
54.500000000000014
42
-0.41421356237309503
10
3.0000000000000004
20
52.500000000000014
10
-3.0000000000000004
20
52.500000000000007
42
-0.41421356237309437
10
-5
20
54.500000000000014
10
-4.9999999999999982
20
66.5
42
-0.41421356237309442
10
-3
20
68.5
10
3.0000000000000004
20
68.5
42
-0.41421356237309503
10
5
20
66.5
0
LWPOLYLINE
5
142
100
AcDbEntity
8
0
100
AcDbPolyline
90
4
70
1
43
0.0
10
-8.4499999999999993
20
55.500000000000007
42
-0.99999999999999989
10
-11.550000000000001
20
55.500000000000007
10
-11.550000000000001
20
65.5
42
-0.99999999999999989
10
-8.4499999999999993
20
65.500000000000014
0
CIRCLE
5
143
100
AcDbEntity
8
0
100
AcDbCircle
10
-15.25
20
65.750000000000014
30
0
40
1.5500000000000003
210
0
220
0
230
1
0
CIRCLE
5
144
100
AcDbEntity
8
0
100
AcDbCircle
10
12.000000000000002
20
79.750000000000014
30
0
40
1.5500000000000003
210
0
220
-0
230
1
0
CIRCLE
5
145
100
AcDbEntity
8
0
100
AcDbCircle
10
-11.999999999999996
20
79.750000000000014
30
0
40
1.5500000000000003
210
0
220
-0
230
1
0
ENDSEC
0
SECTION
2
OBJECTS
0
DICTIONARY
5
C
100
AcDbDictionary
3
ACAD_GROUP
350
D
3
ACAD_MLINESTYLE
350
17
0
DICTIONARY
5
D
100
AcDbDictionary
0
DICTIONARY
5
1A
330
C
100
AcDbDictionary
0
DICTIONARY
5
17
100
AcDbDictionary
0
ENDSEC
0
EOF
