0
SECTION
2
HEADER
9
$INSUNITS
70
4
9
$ACADVER
1
AC1014
9
$HANDSEED
5
FFFF
0
ENDSEC
0
SECTION
2
TABLES
0
TABLE
2
VPORT
5
8
100
AcDbSymbolTable
0
ENDTAB
0
TABLE
2
LTYPE
5
5
100
AcDbSymbolTable
0
LTYPE
5
14
100
AcDbSymbolTableRecord
100
AcDbLinetypeTableRecord
2
BYBLOCK
70
0
0
LTYPE
5
15
100
AcDbSymbolTableRecord
100
AcDbLinetypeTableRecord
2
BYLAYER
70
0
0
ENDTAB
0
TABLE
2
LAYER
5
2
100
AcDbSymbolTable
70
2
0
LAYER
5
50
100
AcDbSymbolTableRecord
100
AcDbLayerTableRecord
2
0
70
0
6
CONTINUOUS
0
ENDTAB
0
TABLE
2
STYLE
5
3
100
AcDbSymbolTable
70
1
0
STYLE
5
11
100
AcDbSymbolTableRecord
100
AcDbTextStyleTableRecord
2
STANDARD
70
0
0
ENDTAB
0
TABLE
2
VIEW
5
6
100
AcDbSymbolTable
70
0
0
ENDTAB
0
TABLE
2
UCS
5
7
100
AcDbSymbolTable
70
0
0
ENDTAB
0
TABLE
2
APPID
5
9
100
AcDbSymbolTable
70
2
0
APPID
5
12
100
AcDbSymbolTableRecord
100
AcDbRegAppTableRecord
2
ACAD
70
0
0
ENDTAB
0
TABLE
2
DIMSTYLE
5
A
100
AcDbSymbolTable
70
1
0
ENDTAB
0
TABLE
2
BLOCK_RECORD
5
1
100
AcDbSymbolTable
70
1
0
BLOCK_RECORD
5
1F
100
AcDbSymbolTableRecord
100
AcDbBlockTableRecord
2
*MODEL_SPACE
0
BLOCK_RECORD
5
1B
100
AcDbSymbolTableRecord
100
AcDbBlockTableRecord
2
*PAPER_SPACE
0
ENDTAB
0
ENDSEC
0
SECTION
2
BLOCKS
0
BLOCK
5
20
100
AcDbEntity
100
AcDbBlockBegin
2
*MODEL_SPACE
0
ENDBLK
5
21
100
AcDbEntity
100
AcDbBlockEnd
0
BLOCK
5
1C
100
AcDbEntity
100
AcDbBlockBegin
2
*PAPER_SPACE
0
ENDBLK
5
1D
100
AcDbEntity
100
AcDbBlockEnd
0
ENDSEC
0
SECTION
2
ENTITIES
0
CIRCLE
5
100
100
AcDbEntity
8
0
100
AcDbCircle
10
-15.250000000000002
20
-25.250000000000004
30
0
40
1.5500000000000003
210
0
220
0
230
1
0
LWPOLYLINE
5
101
100
AcDbEntity
8
0
100
AcDbPolyline
90
6
70
1
43
0.0
10
-13.25
20
10.889899992171038
10
-13.250000000000002
20
-10.889899992171049
42
0.75952067297212678
10
-9.5380126365380633
20
-11.923872558222314
10
-2.9609443244347569
20
-1.0339725660512709
42
0.27854959212117231
10
-2.9609443244347577
20
1.0339725660512644
10
-9.5380126365380633
20
11.92387255822231
42
0.75952067297212666
0
LWPOLYLINE
5
102
100
AcDbEntity
8
0
100
AcDbPolyline
90
6
70
1
43
0.0
10
13.250000000000011
20
-10.889899992171046
10
13.250000000000009
20
10.889899992171042
42
0.75952067297212722
10
9.5380126365380704
20
11.92387255822231
10
2.9609443244347631
20
1.0339725660512655
42
0.27854959212117231
10
2.9609443244347657
20
-1.0339725660512711
10
9.5380126365380704
20
-11.923872558222314
42
0.75952067297212666
0
CIRCLE
5
103
100
AcDbEntity
8
0
100
AcDbCircle
10
15.250000000000011
20
-25.250000000000004
30
0
40
1.5500000000000003
210
0
220
0
230
1
0
LWPOLYLINE
5
104
100
AcDbEntity
8
0
100
AcDbPolyline
90
6
70
1
43
0.0
10
1.7119873634619418
20
6.7031766221055484
42
-0.56427252593456878
10
-1.7119873634619309
20
6.7031766221055511
10
-9.3326695369513821
20
19.321027433948732
42
-0.58394499854612758
10
-7.6206821734894419
20
22.355000000000004
10
7.6206821734894508
20
22.355
42
-0.58394499854612814
10
9.3326695369513875
20
19.321027433948732
0
LWPOLYLINE
5
105
100
AcDbEntity
8
0
100
AcDbPolyline
90
6
70
1
43
0.0
10
-8.1612267279448858
20
-23.25
10
8.1612267279448947
20
-23.25
42
0.58394499854612747
10
9.8732140914068331
20
-20.216027433948732
10
1.7119873634619422
20
-6.7031766221055573
42
0.56427252593456956
10
-1.7119873634619354
20
-6.7031766221055573
10
-9.8732140914068243
20
-20.216027433948732
42
0.58394499854612669
0
LWPOLYLINE
5
106
100
AcDbEntity
8
0
100
AcDbPolyline
90
12
70
1
43
0.0
10
18.623571740174189
20
76.855221115387423
42
-0.077148652430183512
10
19.000000000000007
20
74.43011206167094
10
19.000000000000007
20
-25.799999999999997
42
-0.37217537111397203
10
15.250000000000007
20
-29.040118731649443
10
-15.249999999999996
20
-29.040118731649443
42
-0.37217537111397203
10
-19
20
-25.79999999999999
10
-18.999999999999996
20
74.430112061670954
42
-0.077148652430183512
10
-18.623571740174182
20
76.855221115387408
42
-0.56589430927643425
10
-12.689446076432912
20
78.208874458874476
42
0.20418166935465282
10
-6.9191837134648111
20
75.750000000000014
10
6.9191837134648253
20
75.750000000000014
42
0.20418166935465673
10
12.689446076432917
20
78.208874458874476
42
-0.56589430927643369
0
LWPOLYLINE
5
107
100
AcDbEntity
8
0
100
AcDbPolyline
90
6
70
1
43
0.0
10
1.7119873634619442
20
57.203176622105559
10
7.584204190416747
20
66.926027433948747
42
0.5839449985461268
10
5.8722168269548067
20
69.960000000000008
10
-5.8722168269547961
20
69.960000000000008
42
0.58394499854612658
10
-7.5842041904167328
20
66.926027433948747
10
-1.7119873634619305
20
57.203176622105559
42
0.56427252593457267
0
LWPOLYLINE
5
108
100
AcDbEntity
8
0
100
AcDbPolyline
90
6
70
1
43
0.0
10
-1.7119873634619336
20
43.796823377894455
42
-0.56427252593456878
10
1.7119873634619398
20
43.796823377894462
10
9.3326695369513892
20
31.178972566051272
42
-0.58394499854612758
10
7.6206821734894508
20
28.144999999999996
10
-7.6206821734894419
20
28.144999999999996
42
-0.58394499854612603
10
-9.3326695369513786
20
31.178972566051272
0
CIRCLE
5
109
100
AcDbEntity
8
0
100
AcDbCircle
10
15.250000000000012
20
75.750000000000014
30
0
40
1.5500000000000003
210
0
220
-0
230
1
0
LWPOLYLINE
5
110
100
AcDbEntity
8
0
100
AcDbPolyline
90
6
70
1
43
0.0
10
13.250000000000009
20
39.610100007828962
10
13.250000000000011
20
61.389899992171053
42
0.75952067297212678
10
9.5380126365380704
20
62.423872558222314
10
2.9609443244347631
20
51.533972566051276
42
0.27854959212117203
10
2.9609443244347666
20
49.466027433948739
10
9.5380126365380704
20
38.5761274417777
42
0.75952067297212666
0
LWPOLYLINE
5
111
100
AcDbEntity
8
0
100
AcDbPolyline
90
6
70
1
43
0.0
10
-13.250000000000002
20
61.389899992171053
10
-13.25
20
39.610100007828962
42
0.75952067297212589
10
-9.5380126365380633
20
38.576127441777693
10
-2.960944324434756
20
49.466027433948739
42
0.27854959212117059
10
-2.9609443244347569
20
51.533972566051276
10
-9.5380126365380615
20
62.423872558222314
42
0.75952067297212367
0
CIRCLE
5
112
100
AcDbEntity
8
0
100
AcDbCircle
10
-15.250000000000004
20
75.750000000000014
30
0
40
1.5500000000000003
210
0
220
-0
230
1
0
CIRCLE
5
113
100
AcDbEntity
8
0
100
AcDbCircle
10
-15.250000000000002
20
25.25
30
0
40
1.549999999999998
210
0
220
-0
230
1
0
CIRCLE
5
114
100
AcDbEntity
8
0
100
AcDbCircle
10
15.250000000000011
20
25.250000000000004
30
0
40
1.549999999999998
210
0
220
0
230
1
0
CIRCLE
5
115
100
AcDbEntity
8
0
100
AcDbCircle
10
15.250000000000011
20
-25.250000000000004
30
0
40
1.5500000000000003
210
0
220
0
230
1
0
CIRCLE
5
116
100
AcDbEntity
8
0
100
AcDbCircle
10
-15.250000000000002
20
-25.250000000000004
30
0
40
1.5500000000000003
210
0
220
0
230
1
0
LWPOLYLINE
5
117
100
AcDbEntity
8
0
100
AcDbPolyline
90
6
70
1
43
0.0
10
-8.1612267279448858
20
-23.25
42
-0.58394499854612669
10
-9.8732140914068243
20
-20.216027433948732
10
-1.711987363461932
20
-6.7031766221055591
42
-0.56427252593456934
10
1.711987363461942
20
-6.7031766221055573
10
9.873214091406826
20
-20.216027433948732
42
-0.58394499854612791
10
8.1612267279448947
20
-23.25
0
LWPOLYLINE
5
118
100
AcDbEntity
8
0
100
AcDbPolyline
90
6
70
1
43
0.0
10
13.250000000000011
20
-10.889899992171046
10
13.250000000000009
20
10.889899992171042
42
0.75952067297212722
10
9.5380126365380704
20
11.92387255822231
10
2.9609443244347631
20
1.0339725660512655
42
0.27854959212117231
10
2.9609443244347657
20
-1.0339725660512711
10
9.5380126365380704
20
-11.923872558222314
42
0.75952067297212666
0
LWPOLYLINE
5
119
100
AcDbEntity
8
0
100
AcDbPolyline
90
6
70
1
43
0.0
10
-9.5380126365380598
20
-11.923872558222314
42
-0.75952067297212689
10
-13.250000000000002
20
-10.889899992171049
10
-13.250000000000002
20
10.889899992171038
42
-0.75952067297212678
10
-9.5380126365380633
20
11.92387255822231
10
-2.9609443244347542
20
1.0339725660512658
42
-0.2785495921211722
10
-2.9609443244347569
20
-1.0339725660512711
0
LWPOLYLINE
5
120
100
AcDbEntity
8
0
100
AcDbPolyline
90
6
70
1
43
0.0
10
-9.3326695369513821
20
19.321027433948732
42
-0.58394499854612758
10
-7.6206821734894419
20
22.355000000000004
10
7.6206821734894508
20
22.355
42
-0.58394499854612814
10
9.3326695369513875
20
19.321027433948732
10
1.7119873634619418
20
6.7031766221055484
42
-0.56427252593456878
10
-1.7119873634619309
20
6.7031766221055511
0
LWPOLYLINE
5
121
100
AcDbEntity
8
0
100
AcDbPolyline
90
6
70
1
43
0.0
10
-7.6206821734894419
20
28.144999999999996
42
-0.58394499854612603
10
-9.3326695369513786
20
31.178972566051272
10
-1.7119873634619336
20
43.796823377894455
42
-0.56427252593456878
10
1.7119873634619398
20
43.796823377894462
10
9.3326695369513892
20
31.178972566051272
42
-0.58394499854612758
10
7.6206821734894508
20
28.144999999999996
0
CIRCLE
5
122
100
AcDbEntity
8
0
100
AcDbCircle
10
15.250000000000011
20
25.250000000000004
30
0
40
1.549999999999998
210
0
220
0
230
1
0
CIRCLE
5
123
100
AcDbEntity
8
0
100
AcDbCircle
10
-15.250000000000002
20
25.25
30
0
40
1.549999999999998
210
0
220
-0
230
1
0
LWPOLYLINE
5
124
100
AcDbEntity
8
0
100
AcDbPolyline
90
6
70
1
43
0.0
10
2.960944324434764
20
49.466027433948739
42
-0.2785495921211717
10
2.9609443244347631
20
51.533972566051276
10
9.5380126365380686
20
62.423872558222314
42
-0.75952067297212689
10
13.250000000000011
20
61.389899992171053
10
13.250000000000009
20
39.610100007828962
42
-0.75952067297212666
10
9.5380126365380704
20
38.5761274417777
0
LWPOLYLINE
5
125
100
AcDbEntity
8
0
100
AcDbPolyline
90
6
70
1
43
0.0
10
-9.5380126365380651
20
38.576127441777693
42
-0.75952067297212578
10
-13.25
20
39.610100007828962
10
-13.250000000000004
20
61.389899992171053
42
-0.75952067297212367
10
-9.5380126365380615
20
62.423872558222314
10
-2.9609443244347569
20
51.533972566051276
42
-0.27854959212117053
10
-2.9609443244347555
20
49.466027433948739
0
LWPOLYLINE
5
126
100
AcDbEntity
8
0
100
AcDbPolyline
90
6
70
1
43
0.0
10
-7.5842041904167345
20
66.926027433948747
42
-0.58394499854612647
10
-5.8722168269547961
20
69.960000000000008
10
5.872216826954805
20
69.960000000000022
42
-0.58394499854612725
10
7.584204190416747
20
66.926027433948747
10
1.7119873634619445
20
57.203176622105559
42
-0.56427252593457267
10
-1.7119873634619309
20
57.203176622105559
0
CIRCLE
5
127
100
AcDbEntity
8
0
100
AcDbCircle
10
15.250000000000012
20
75.750000000000014
30
0
40
1.5500000000000003
210
0
220
-0
230
1
0
CIRCLE
5
128
100
AcDbEntity
8
0
100
AcDbCircle
10
-15.250000000000004
20
75.750000000000014
30
0
40
1.5500000000000003
210
0
220
-0
230
1
0
LWPOLYLINE
5
129
100
AcDbEntity
8
0
100
AcDbPolyline
90
12
70
1
43
0.0
10
15.250000000000007
20
-29.040118731649443
10
-15.25
20
-29.04011873164945
42
-0.37217537111397275
10
-19
20
-25.79999999999999
10
-18.999999999999996
20
74.430112061670954
42
-0.077148652430183512
10
-18.623571740174182
20
76.855221115387408
42
-0.56589430927643425
10
-12.689446076432912
20
78.208874458874476
42
0.20418166935465284
10
-6.9191837134648111
20
75.750000000000014
10
6.9191837134648253
20
75.750000000000014
42
0.20418166935465673
10
12.689446076432917
20
78.208874458874476
42
-0.56589430927643369
10
18.623571740174189
20
76.855221115387423
42
-0.077148652430183512
10
19.000000000000007
20
74.43011206167094
10
19.000000000000007
20
-25.799999999999997
42
-0.37217537111397203
0
ENDSEC
0
SECTION
2
OBJECTS
0
DICTIONARY
5
C
100
AcDbDictionary
3
ACAD_GROUP
350
D
3
ACAD_MLINESTYLE
350
17
0
DICTIONARY
5
D
100
AcDbDictionary
0
DICTIONARY
5
1A
330
C
100
AcDbDictionary
0
DICTIONARY
5
17
100
AcDbDictionary
0
ENDSEC
0
EOF
