0
SECTION
2
HEADER
9
$INSUNITS
70
4
9
$ACADVER
1
AC1014
9
$HANDSEED
5
FFFF
0
ENDSEC
0
SECTION
2
TABLES
0
TABLE
2
VPORT
5
8
100
AcDbSymbolTable
0
ENDTAB
0
TABLE
2
LTYPE
5
5
100
AcDbSymbolTable
0
LTYPE
5
14
100
AcDbSymbolTableRecord
100
AcDbLinetypeTableRecord
2
BYBLOCK
70
0
0
LTYPE
5
15
100
AcDbSymbolTableRecord
100
AcDbLinetypeTableRecord
2
BYLAYER
70
0
0
ENDTAB
0
TABLE
2
LAYER
5
2
100
AcDbSymbolTable
70
2
0
LAYER
5
50
100
AcDbSymbolTableRecord
100
AcDbLayerTableRecord
2
0
70
0
6
CONTINUOUS
0
ENDTAB
0
TABLE
2
STYLE
5
3
100
AcDbSymbolTable
70
1
0
STYLE
5
11
100
AcDbSymbolTableRecord
100
AcDbTextStyleTableRecord
2
STANDARD
70
0
0
ENDTAB
0
TABLE
2
VIEW
5
6
100
AcDbSymbolTable
70
0
0
ENDTAB
0
TABLE
2
UCS
5
7
100
AcDbSymbolTable
70
0
0
ENDTAB
0
TABLE
2
APPID
5
9
100
AcDbSymbolTable
70
2
0
APPID
5
12
100
AcDbSymbolTableRecord
100
AcDbRegAppTableRecord
2
ACAD
70
0
0
ENDTAB
0
TABLE
2
DIMSTYLE
5
A
100
AcDbSymbolTable
70
1
0
ENDTAB
0
TABLE
2
BLOCK_RECORD
5
1
100
AcDbSymbolTable
70
1
0
BLOCK_RECORD
5
1F
100
AcDbSymbolTableRecord
100
AcDbBlockTableRecord
2
*MODEL_SPACE
0
BLOCK_RECORD
5
1B
100
AcDbSymbolTableRecord
100
AcDbBlockTableRecord
2
*PAPER_SPACE
0
ENDTAB
0
ENDSEC
0
SECTION
2
BLOCKS
0
BLOCK
5
20
100
AcDbEntity
100
AcDbBlockBegin
2
*MODEL_SPACE
0
ENDBLK
5
21
100
AcDbEntity
100
AcDbBlockEnd
0
BLOCK
5
1C
100
AcDbEntity
100
AcDbBlockBegin
2
*PAPER_SPACE
0
ENDBLK
5
1D
100
AcDbEntity
100
AcDbBlockEnd
0
ENDSEC
0
SECTION
2
ENTITIES
0
LWPOLYLINE
5
100
100
AcDbEntity
8
0
100
AcDbPolyline
90
6
70
1
43
0.0
10
-8.0634478648166983
20
28.145000000000003
10
8.0634478648167018
20
28.145000000000003
42
0.56779903982781865
10
9.8235500127147688
20
31.094758089707376
10
1.7601021478980736
20
46.03802844468877
42
0.59669372686513389
10
-1.7601021478980683
20
46.03802844468877
10
-9.8235500127147652
20
31.094758089707376
42
0.56779903982781665
0
LWPOLYLINE
5
101
100
AcDbEntity
8
0
100
AcDbPolyline
90
6
70
1
43
0.0
10
-8.1612267279448858
20
-23.25
10
8.1612267279448893
20
-23.25
42
0.58394499854612747
10
9.8732140914068278
20
-20.216027433948732
10
1.71198736346194
20
-6.7031766221055538
42
0.56427252593456878
10
-1.7119873634619354
20
-6.7031766221055573
10
-9.8732140914068243
20
-20.216027433948732
42
0.58394499854612669
0
LWPOLYLINE
5
102
100
AcDbEntity
8
0
100
AcDbPolyline
90
6
70
1
43
0.0
10
7.6206821734894472
20
22.355
10
-7.6206821734894428
20
22.355
42
0.58394499854612736
10
-9.3326695369513786
20
19.321027433948728
10
-1.7119873634619343
20
6.7031766221055511
42
0.56427252593456934
10
1.7119873634619376
20
6.7031766221055538
10
9.3326695369513821
20
19.321027433948732
42
0.58394499854612636
0
LWPOLYLINE
5
103
100
AcDbEntity
8
0
100
AcDbPolyline
90
6
70
1
43
0.0
10
1.7601021478980718
20
60.984907335127744
42
-0.59669372686513378
10
-1.7601021478980694
20
60.984907335127744
10
-5.9772876364771506
20
68.800241910292641
42
-0.56779903982781721
10
-4.2171854885790792
20
71.750000000000014
10
4.2171854885790836
20
71.750000000000014
42
-0.56779903982781688
10
5.9772876364771532
20
68.800241910292641
0
CIRCLE
5
104
100
AcDbEntity
8
0
100
AcDbCircle
10
12.000000000000002
20
79.750000000000014
30
0
40
1.5500000000000114
210
0
220
0
230
1
0
LWPOLYLINE
5
105
100
AcDbEntity
8
0
100
AcDbPolyline
90
6
70
1
43
0.0
10
7.1430577785662921
20
62.537462436852067
10
2.7850886011466267
20
54.461225979615627
42
0.25258837455740391
10
2.7850886011466249
20
52.56170980020088
10
8.3233410974507809
20
42.298159302462906
42
0.80496073361781839
10
12.079314315870253
20
43.376364540273144
10
10.899030996985761
20
61.716151495247551
42
0.75332319847310447
0
LWPOLYLINE
5
106
100
AcDbEntity
8
0
100
AcDbPolyline
90
6
70
1
43
0.0
10
13.250000000000007
20
-10.889899992171046
10
13.250000000000004
20
10.889899992171042
42
0.75952067297212722
10
9.5380126365380669
20
11.92387255822231
10
2.9609443244347586
20
1.0339725660512655
42
0.27854959212117231
10
2.9609443244347613
20
-1.0339725660512711
10
9.5380126365380651
20
-11.923872558222314
42
0.75952067297212666
0
CIRCLE
5
107
100
AcDbEntity
8
0
100
AcDbCircle
10
15.250000000000005
20
25.250000000000004
30
0
40
1.549999999999998
210
0
220
0
230
1
0
CIRCLE
5
108
100
AcDbEntity
8
0
100
AcDbCircle
10
15.250000000000005
20
-25.250000000000004
30
0
40
1.5500000000000003
210
0
220
0
230
1
0
CIRCLE
5
109
100
AcDbEntity
8
0
100
AcDbCircle
10
-15.250000000000002
20
-25.250000000000004
30
0
40
1.5500000000000003
210
0
220
0
230
1
0
CIRCLE
5
110
100
AcDbEntity
8
0
100
AcDbCircle
10
-15.250000000000002
20
25.250000000000004
30
0
40
1.549999999999998
210
0
220
0
230
1
0
LWPOLYLINE
5
111
100
AcDbEntity
8
0
100
AcDbPolyline
90
6
70
1
43
0.0
10
-13.25
20
10.889899992171038
10
-13.250000000000002
20
-10.889899992171049
42
0.75952067297212678
10
-9.5380126365380633
20
-11.923872558222314
10
-2.9609443244347569
20
-1.0339725660512709
42
0.27854959212117231
10
-2.9609443244347577
20
1.0339725660512644
10
-9.5380126365380633
20
11.92387255822231
42
0.75952067297212666
0
LWPOLYLINE
5
112
100
AcDbEntity
8
0
100
AcDbPolyline
90
6
70
1
43
0.0
10
-2.7850886011466223
20
54.461225979615627
10
-7.1430577785662877
20
62.537462436852067
42
0.75332319847310747
10
-10.899030996985758
20
61.716151495247551
10
-12.079314315870246
20
43.376364540273144
42
0.80496073361781839
10
-8.3233410974507755
20
42.298159302462906
10
-2.7850886011466192
20
52.56170980020088
42
0.25258837455740313
0
LWPOLYLINE
5
113
100
AcDbEntity
8
0
100
AcDbPolyline
90
12
70
1
43
0.0
10
15.250000000000004
20
-29.040118731649443
10
-15.25
20
-29.040118731649443
42
-0.37217537111397242
10
-19
20
-25.800000000000001
10
-19
20
25.368832576842379
10
-15.549999999999994
20
79.750000000000014
42
-0.79968667898722445
10
-8.7932808819084638
20
81.27297488412195
42
0.20884350356049991
10
-3.9605619799967782
20
77.071535931027867
42
0.16978027202970061
10
3.9605619799967884
20
77.071535931027867
42
0.20884350356049963
10
8.7932808819084762
20
81.27297488412195
42
-0.79968667898722401
10
15.549999999999988
20
79.750000000000014
10
19.000000000000004
20
25.368832576842379
10
19.000000000000004
20
-25.799999999999997
42
-0.37217537111397203
0
CIRCLE
5
114
100
AcDbEntity
8
0
100
AcDbCircle
10
-11.999999999999996
20
79.750000000000014
30
0
40
1.5500000000000114
210
0
220
0
230
1
0
LWPOLYLINE
5
115
100
AcDbEntity
8
0
100
AcDbPolyline
90
12
70
1
43
0.0
10
-15.249999999999996
20
-29.040118731649443
42
-0.37217537111397203
10
-19
20
-25.800000000000001
10
-19
20
25.368832576842379
10
-15.549999999999994
20
79.750000000000014
42
-0.79968667898722445
10
-8.7932808819084638
20
81.27297488412195
42
0.20884350356049991
10
-3.9605619799967782
20
77.071535931027867
42
0.16978027202970061
10
3.9605619799967884
20
77.071535931027867
42
0.20884350356049969
10
8.7932808819084762
20
81.27297488412195
42
-0.7996866789872239
10
15.549999999999988
20
79.750000000000014
10
19.000000000000004
20
25.368832576842379
10
19.000000000000004
20
-25.800000000000001
42
-0.37217537111397225
10
15.25
20
-29.040118731649443
0
CIRCLE
5
116
100
AcDbEntity
8
0
100
AcDbCircle
10
-15.250000000000002
20
-25.250000000000004
30
0
40
1.5500000000000003
210
0
220
0
230
1
0
CIRCLE
5
117
100
AcDbEntity
8
0
100
AcDbCircle
10
15.250000000000005
20
-25.250000000000004
30
0
40
1.5500000000000003
210
0
220
0
230
1
0
LWPOLYLINE
5
118
100
AcDbEntity
8
0
100
AcDbPolyline
90
6
70
1
43
0.0
10
9.8732140914068296
20
-20.216027433948732
10
1.71198736346194
20
-6.7031766221055538
42
0.56427252593456856
10
-1.7119873634619343
20
-6.7031766221055573
10
-9.8732140914068243
20
-20.216027433948732
42
0.58394499854612669
10
-8.1612267279448858
20
-23.25
10
8.1612267279448893
20
-23.25
42
0.58394499854612736
0
LWPOLYLINE
5
119
100
AcDbEntity
8
0
100
AcDbPolyline
90
6
70
1
43
0.0
10
13.250000000000007
20
-10.889899992171046
10
13.250000000000004
20
10.889899992171042
42
0.75952067297212722
10
9.5380126365380669
20
11.92387255822231
10
2.9609443244347586
20
1.0339725660512655
42
0.27854959212117231
10
2.9609443244347613
20
-1.0339725660512711
10
9.5380126365380651
20
-11.923872558222314
42
0.75952067297212666
0
LWPOLYLINE
5
120
100
AcDbEntity
8
0
100
AcDbPolyline
90
6
70
1
43
0.0
10
-9.5380126365380598
20
-11.923872558222314
42
-0.75952067297212689
10
-13.250000000000002
20
-10.889899992171049
10
-13.250000000000002
20
10.889899992171038
42
-0.75952067297212678
10
-9.5380126365380633
20
11.92387255822231
10
-2.9609443244347542
20
1.0339725660512658
42
-0.2785495921211722
10
-2.9609443244347569
20
-1.0339725660512711
0
LWPOLYLINE
5
121
100
AcDbEntity
8
0
100
AcDbPolyline
90
6
70
1
43
0.0
10
-9.3326695369513786
20
19.321027433948728
42
-0.58394499854612736
10
-7.6206821734894428
20
22.355
10
7.6206821734894472
20
22.355
42
-0.58394499854612636
10
9.3326695369513821
20
19.321027433948732
10
1.7119873634619411
20
6.7031766221055511
42
-0.56427252593456934
10
-1.7119873634619343
20
6.7031766221055511
0
CIRCLE
5
122
100
AcDbEntity
8
0
100
AcDbCircle
10
15.250000000000005
20
25.250000000000004
30
0
40
1.549999999999998
210
0
220
0
230
1
0
CIRCLE
5
123
100
AcDbEntity
8
0
100
AcDbCircle
10
-15.250000000000002
20
25.250000000000004
30
0
40
1.549999999999998
210
0
220
0
230
1
0
LWPOLYLINE
5
124
100
AcDbEntity
8
0
100
AcDbPolyline
90
6
70
1
43
0.0
10
-1.7601021478980703
20
46.03802844468877
42
-0.59669372686513411
10
1.7601021478980738
20
46.03802844468877
10
9.8235500127147688
20
31.094758089707376
42
-0.56779903982781865
10
8.0634478648167018
20
28.145000000000003
10
-8.0634478648166983
20
28.145000000000007
42
-0.56779903982781665
10
-9.8235500127147652
20
31.094758089707376
0
LWPOLYLINE
5
125
100
AcDbEntity
8
0
100
AcDbPolyline
90
6
70
1
43
0.0
10
7.1430577785662948
20
62.537462436852067
42
-0.75332319847310403
10
10.899030996985761
20
61.716151495247551
10
12.079314315870253
20
43.376364540273144
42
-0.80496073361781839
10
8.3233410974507809
20
42.298159302462906
10
2.7850886011466267
20
52.56170980020088
42
-0.25258837455740407
10
2.7850886011466267
20
54.461225979615627
0
LWPOLYLINE
5
126
100
AcDbEntity
8
0
100
AcDbPolyline
90
6
70
1
43
0.0
10
-2.7850886011466187
20
54.461225979615627
42
-0.25258837455740285
10
-2.7850886011466192
20
52.56170980020088
10
-8.3233410974507791
20
42.298159302462906
42
-0.80496073361781806
10
-12.079314315870246
20
43.376364540273144
10
-10.899030996985758
20
61.716151495247544
42
-0.75332319847310947
10
-7.1430577785662877
20
62.537462436852067
0
LWPOLYLINE
5
127
100
AcDbEntity
8
0
100
AcDbPolyline
90
6
70
1
43
0.0
10
-5.9772876364771506
20
68.800241910292641
42
-0.56779903982781665
10
-4.2171854885790792
20
71.750000000000014
10
4.2171854885790836
20
71.750000000000014
42
-0.56779903982781688
10
5.9772876364771532
20
68.800241910292641
10
1.7601021478980718
20
60.984907335127744
42
-0.59669372686513378
10
-1.7601021478980694
20
60.984907335127744
0
CIRCLE
5
128
100
AcDbEntity
8
0
100
AcDbCircle
10
12.000000000000002
20
79.750000000000014
30
0
40
1.5500000000000114
210
0
220
0
230
1
0
CIRCLE
5
129
100
AcDbEntity
8
0
100
AcDbCircle
10
-11.999999999999996
20
79.750000000000014
30
0
40
1.5500000000000114
210
0
220
0
230
1
0
ENDSEC
0
SECTION
2
OBJECTS
0
DICTIONARY
5
C
100
AcDbDictionary
3
ACAD_GROUP
350
D
3
ACAD_MLINESTYLE
350
17
0
DICTIONARY
5
D
100
AcDbDictionary
0
DICTIONARY
5
1A
330
C
100
AcDbDictionary
0
DICTIONARY
5
17
100
AcDbDictionary
0
ENDSEC
0
EOF
