0
SECTION
2
HEADER
9
$INSUNITS
70
4
9
$ACADVER
1
AC1014
9
$HANDSEED
5
FFFF
0
ENDSEC
0
SECTION
2
TABLES
0
TABLE
2
VPORT
5
8
100
AcDbSymbolTable
0
ENDTAB
0
TABLE
2
LTYPE
5
5
100
AcDbSymbolTable
0
LTYPE
5
14
100
AcDbSymbolTableRecord
100
AcDbLinetypeTableRecord
2
BYBLOCK
70
0
0
LTYPE
5
15
100
AcDbSymbolTableRecord
100
AcDbLinetypeTableRecord
2
BYLAYER
70
0
0
ENDTAB
0
TABLE
2
LAYER
5
2
100
AcDbSymbolTable
70
2
0
LAYER
5
50
100
AcDbSymbolTableRecord
100
AcDbLayerTableRecord
2
0
70
0
6
CONTINUOUS
0
ENDTAB
0
TABLE
2
STYLE
5
3
100
AcDbSymbolTable
70
1
0
STYLE
5
11
100
AcDbSymbolTableRecord
100
AcDbTextStyleTableRecord
2
STANDARD
70
0
0
ENDTAB
0
TABLE
2
VIEW
5
6
100
AcDbSymbolTable
70
0
0
ENDTAB
0
TABLE
2
UCS
5
7
100
AcDbSymbolTable
70
0
0
ENDTAB
0
TABLE
2
APPID
5
9
100
AcDbSymbolTable
70
2
0
APPID
5
12
100
AcDbSymbolTableRecord
100
AcDbRegAppTableRecord
2
ACAD
70
0
0
ENDTAB
0
TABLE
2
DIMSTYLE
5
A
100
AcDbSymbolTable
70
1
0
ENDTAB
0
TABLE
2
BLOCK_RECORD
5
1
100
AcDbSymbolTable
70
1
0
BLOCK_RECORD
5
1F
100
AcDbSymbolTableRecord
100
AcDbBlockTableRecord
2
*MODEL_SPACE
0
BLOCK_RECORD
5
1B
100
AcDbSymbolTableRecord
100
AcDbBlockTableRecord
2
*PAPER_SPACE
0
ENDTAB
0
ENDSEC
0
SECTION
2
BLOCKS
0
BLOCK
5
20
100
AcDbEntity
100
AcDbBlockBegin
2
*MODEL_SPACE
0
ENDBLK
5
21
100
AcDbEntity
100
AcDbBlockEnd
0
BLOCK
5
1C
100
AcDbEntity
100
AcDbBlockBegin
2
*PAPER_SPACE
0
ENDBLK
5
1D
100
AcDbEntity
100
AcDbBlockEnd
0
ENDSEC
0
SECTION
2
ENTITIES
0
LWPOLYLINE
5
100
100
AcDbEntity
8
0
100
AcDbPolyline
90
6
70
1
43
0.0
10
-8.3233410974507844
20
42.298159302462906
10
-2.7850886011466294
20
52.56170980020088
42
0.25258837455740313
10
-2.7850886011466249
20
54.461225979615627
10
-7.143057778566285
20
62.537462436852067
42
0.75332319847311002
10
-10.89903099698576
20
61.716151495247559
10
-12.079314315870256
20
43.376364540273144
42
0.80496073361781839
0
LWPOLYLINE
5
101
100
AcDbEntity
8
0
100
AcDbPolyline
90
6
70
1
43
0.0
10
-5.9772876364771479
20
68.800241910292627
10
-1.7601021478980705
20
60.984907335127744
42
0.59669372686513322
10
1.7601021478980627
20
60.984907335127744
10
5.9772876364771497
20
68.800241910292641
42
0.56779903982781688
10
4.2171854885790792
20
71.75
10
-4.2171854885790738
20
71.75
42
0.56779903982781688
0
LWPOLYLINE
5
102
100
AcDbEntity
8
0
100
AcDbPolyline
90
6
70
1
43
0.0
10
10.306495557269219
20
30.19975808970738
10
1.7601021478980685
20
46.03802844468877
42
0.59669372686513411
10
-1.760102147898075
20
46.03802844468877
10
-10.306495557269226
20
30.19975808970738
42
0.56779903982781665
10
-8.5463934093711575
20
27.250000000000007
10
8.5463934093711504
20
27.250000000000007
42
0.56779903982781699
0
LWPOLYLINE
5
103
100
AcDbEntity
8
0
100
AcDbPolyline
90
6
70
1
43
0.0
10
7.1430577785662877
20
62.537462436852067
10
2.7850886011466223
20
54.461225979615627
42
0.25258837455740324
10
2.7850886011466205
20
52.56170980020088
10
8.3233410974507755
20
42.298159302462906
42
0.80496073361781839
10
12.079314315870249
20
43.376364540273144
10
10.899030996985758
20
61.716151495247551
42
0.75332319847310747
0
LWPOLYLINE
5
104
100
AcDbEntity
8
0
100
AcDbPolyline
90
6
70
1
43
0.0
10
-2.9609443244347622
20
1.0339725660512689
10
-9.5380126365380704
20
11.923872558222319
42
0.75952067297212589
10
-13.250000000000009
20
10.889899992171053
10
-13.250000000000009
20
-10.889899992171053
42
0.75952067297212589
10
-9.5380126365380704
20
-11.923872558222319
10
-2.9609443244347626
20
-1.0339725660512704
42
0.27854959212117253
0
LWPOLYLINE
5
105
100
AcDbEntity
8
0
100
AcDbPolyline
90
6
70
1
43
0.0
10
8.1612267279448876
20
23.25
10
-8.1612267279448947
20
23.25
42
0.58394499854612758
10
-9.8732140914068331
20
20.216027433948728
10
-1.7119873634619409
20
6.7031766221055511
42
0.56427252593456911
10
1.7119873634619331
20
6.7031766221055511
10
9.873214091406826
20
20.216027433948732
42
0.58394499854612669
0
LWPOLYLINE
5
106
100
AcDbEntity
8
0
100
AcDbPolyline
90
6
70
1
43
0.0
10
9.8732140914068225
20
-20.216027433948732
10
1.7119873634619351
20
-6.7031766221055573
42
0.56427252593456934
10
-1.711987363461942
20
-6.7031766221055573
10
-9.8732140914068331
20
-20.216027433948732
42
0.58394499854612669
10
-8.1612267279448947
20
-23.25
10
8.1612267279448858
20
-23.25
42
0.5839449985461268
0
LWPOLYLINE
5
107
100
AcDbEntity
8
0
100
AcDbPolyline
90
6
70
1
43
0.0
10
13.250000000000002
20
-10.889899992171046
10
13.25
20
10.889899992171042
42
0.75952067297212633
10
9.5380126365380633
20
11.92387255822231
10
2.9609443244347542
20
1.0339725660512666
42
0.27854959212117236
10
2.9609443244347569
20
-1.0339725660512711
10
9.5380126365380615
20
-11.923872558222314
42
0.75952067297212744
0
CIRCLE
5
108
100
AcDbEntity
8
0
100
AcDbCircle
10
15.250000000000002
20
25.250000000000004
30
0
40
1.549999999999998
210
0
220
-0
230
1
0
CIRCLE
5
109
100
AcDbEntity
8
0
100
AcDbCircle
10
12.000000000000004
20
75.750000000000014
30
0
40
1.5500000000000003
210
0
220
-0
230
1
0
CIRCLE
5
110
100
AcDbEntity
8
0
100
AcDbCircle
10
15.250000000000002
20
-25.250000000000004
30
0
40
1.5500000000000003
210
0
220
-0
230
1
0
LWPOLYLINE
5
111
100
AcDbEntity
8
0
100
AcDbPolyline
90
14
70
1
43
0.0
10
-15.250000000000007
20
-29.04011873164945
42
-0.37217537111397175
10
-19.000000000000007
20
-25.800000000000001
10
-19.000000000000011
20
66.245259782464288
42
-0.095162516515598858
10
-18.430778422890626
20
69.208962201720198
10
-15.297407925157756
20
77.065142948544775
42
-0.57347672810997352
10
-9.2381228646607525
20
77.980366492146601
42
0.22663117183399289
10
-4.5701615091578276
20
75.750000000000014
10
4.5701615091578223
20
75.750000000000014
42
0.22663117183399295
10
9.2381228646607561
20
77.980366492146601
42
-0.57347672810997297
10
15.297407925157726
20
77.065142948544775
10
18.430778422890619
20
69.208962201720198
42
-0.09516251651559865
10
19
20
66.245259782464302
10
18.999999999999996
20
-25.800000000000001
42
-0.37217537111397175
10
15.249999999999996
20
-29.040118731649443
0
CIRCLE
5
112
100
AcDbEntity
8
0
100
AcDbCircle
10
-15.250000000000007
20
-25.250000000000004
30
0
40
1.5500000000000003
210
0
220
-0
230
1
0
CIRCLE
5
113
100
AcDbEntity
8
0
100
AcDbCircle
10
-12.000000000000014
20
75.750000000000014
30
0
40
1.5500000000000003
210
0
220
-0
230
1
0
CIRCLE
5
114
100
AcDbEntity
8
0
100
AcDbCircle
10
-15.250000000000007
20
25.250000000000004
30
0
40
1.549999999999998
210
0
220
-0
230
1
0
LWPOLYLINE
5
115
100
AcDbEntity
8
0
100
AcDbPolyline
90
14
70
1
43
0.0
10
15.249999999999995
20
-29.040118731649443
10
-15.250000000000014
20
-29.04011873164945
42
-0.37217537111397159
10
-19.000000000000007
20
-25.800000000000001
10
-19.000000000000011
20
66.245259782464288
42
-0.095162516515598858
10
-18.430778422890626
20
69.208962201720198
10
-15.297407925157756
20
77.065142948544789
42
-0.57347672810997308
10
-9.2381228646607525
20
77.980366492146601
42
0.22663117183399289
10
-4.5701615091578276
20
75.750000000000014
10
4.5701615091578223
20
75.750000000000014
42
0.22663117183399295
10
9.2381228646607561
20
77.980366492146601
42
-0.57347672810997297
10
15.297407925157726
20
77.065142948544775
10
18.430778422890615
20
69.208962201720198
42
-0.095162516515598747
10
19
20
66.245259782464302
10
19
20
-25.799999999999997
42
-0.37217537111397242
0
CIRCLE
5
116
100
AcDbEntity
8
0
100
AcDbCircle
10
-12.000000000000014
20
75.750000000000014
30
0
40
1.5500000000000003
210
0
220
-0
230
1
0
CIRCLE
5
117
100
AcDbEntity
8
0
100
AcDbCircle
10
12.000000000000004
20
75.750000000000014
30
0
40
1.5500000000000003
210
0
220
-0
230
1
0
LWPOLYLINE
5
118
100
AcDbEntity
8
0
100
AcDbPolyline
90
6
70
1
43
0.0
10
4.2171854885790792
20
71.75
10
-4.2171854885790738
20
71.75
42
0.56779903982781688
10
-5.9772876364771479
20
68.800241910292627
10
-1.7601021478980705
20
60.984907335127744
42
0.59669372686513322
10
1.7601021478980627
20
60.984907335127744
10
5.9772876364771497
20
68.800241910292641
42
0.56779903982781688
0
LWPOLYLINE
5
119
100
AcDbEntity
8
0
100
AcDbPolyline
90
6
70
1
43
0.0
10
-2.785088601146624
20
54.46122597961562
42
-0.25258837455740202
10
-2.7850886011466294
20
52.56170980020088
10
-8.3233410974507809
20
42.298159302462906
42
-0.80496073361781872
10
-12.079314315870256
20
43.376364540273144
10
-10.899030996985763
20
61.716151495247559
42
-0.75332319847311002
10
-7.143057778566285
20
62.537462436852067
0
LWPOLYLINE
5
120
100
AcDbEntity
8
0
100
AcDbPolyline
90
6
70
1
43
0.0
10
7.143057778566285
20
62.537462436852067
42
-0.75332319847310802
10
10.899030996985758
20
61.716151495247551
10
12.079314315870249
20
43.376364540273144
42
-0.80496073361781839
10
8.3233410974507755
20
42.298159302462906
10
2.7850886011466174
20
52.561709800200887
42
-0.25258837455740202
10
2.7850886011466223
20
54.461225979615627
0
LWPOLYLINE
5
121
100
AcDbEntity
8
0
100
AcDbPolyline
90
6
70
1
43
0.0
10
10.306495557269223
20
30.19975808970738
42
-0.56779903982781665
10
8.5463934093711504
20
27.250000000000007
10
-8.5463934093711575
20
27.250000000000007
42
-0.56779903982781654
10
-10.306495557269226
20
30.19975808970738
10
-1.7601021478980727
20
46.03802844468877
42
-0.59669372686513389
10
1.7601021478980683
20
46.03802844468877
0
CIRCLE
5
122
100
AcDbEntity
8
0
100
AcDbCircle
10
-15.250000000000007
20
25.250000000000004
30
0
40
1.549999999999998
210
0
220
-0
230
1
0
CIRCLE
5
123
100
AcDbEntity
8
0
100
AcDbCircle
10
15.250000000000002
20
25.250000000000004
30
0
40
1.549999999999998
210
0
220
-0
230
1
0
LWPOLYLINE
5
124
100
AcDbEntity
8
0
100
AcDbPolyline
90
6
70
1
43
0.0
10
1.7119873634619349
20
6.7031766221055511
42
-0.56427252593456934
10
-1.7119873634619409
20
6.7031766221055511
10
-9.8732140914068349
20
20.216027433948728
42
-0.58394499854612758
10
-8.1612267279448947
20
23.25
10
8.1612267279448876
20
23.25
42
-0.58394499854612669
10
9.873214091406826
20
20.216027433948732
0
LWPOLYLINE
5
125
100
AcDbEntity
8
0
100
AcDbPolyline
90
6
70
1
43
0.0
10
-2.9609443244347631
20
1.0339725660512695
42
-0.27854959212117264
10
-2.9609443244347631
20
-1.0339725660512711
10
-9.5380126365380722
20
-11.923872558222319
42
-0.75952067297212589
10
-13.250000000000009
20
-10.889899992171053
10
-13.250000000000011
20
10.889899992171053
42
-0.75952067297212589
10
-9.5380126365380704
20
11.923872558222319
0
LWPOLYLINE
5
126
100
AcDbEntity
8
0
100
AcDbPolyline
90
6
70
1
43
0.0
10
9.5380126365380633
20
11.92387255822231
42
-0.75952067297212633
10
13.25
20
10.889899992171042
10
13.250000000000002
20
-10.889899992171046
42
-0.75952067297212744
10
9.5380126365380615
20
-11.923872558222314
10
2.9609443244347569
20
-1.033972566051272
42
-0.27854959212117242
10
2.9609443244347542
20
1.0339725660512666
0
LWPOLYLINE
5
127
100
AcDbEntity
8
0
100
AcDbPolyline
90
6
70
1
43
0.0
10
9.873214091406826
20
-20.216027433948732
42
-0.58394499854612658
10
8.1612267279448858
20
-23.25
10
-8.1612267279448947
20
-23.25
42
-0.58394499854612669
10
-9.8732140914068331
20
-20.216027433948732
10
-1.7119873634619454
20
-6.7031766221055564
42
-0.56427252593456956
10
1.7119873634619354
20
-6.7031766221055573
0
CIRCLE
5
128
100
AcDbEntity
8
0
100
AcDbCircle
10
-15.250000000000007
20
-25.250000000000004
30
0
40
1.5500000000000003
210
0
220
-0
230
1
0
CIRCLE
5
129
100
AcDbEntity
8
0
100
AcDbCircle
10
15.250000000000002
20
-25.250000000000004
30
0
40
1.5500000000000003
210
0
220
-0
230
1
0
ENDSEC
0
SECTION
2
OBJECTS
0
DICTIONARY
5
C
100
AcDbDictionary
3
ACAD_GROUP
350
D
3
ACAD_MLINESTYLE
350
17
0
DICTIONARY
5
D
100
AcDbDictionary
0
DICTIONARY
5
1A
330
C
100
AcDbDictionary
0
DICTIONARY
5
17
100
AcDbDictionary
0
ENDSEC
0
EOF
